<?xml version="1.0" encoding="UTF-8" standalone="no"?>
<svg width="1280px" height="300px" viewBox="0 0 1280 300" version="1.1" xmlns="http://www.w3.org/2000/svg" xmlns:xlink="http://www.w3.org/1999/xlink" xmlns:sketch="http://www.bohemiancoding.com/sketch/ns">
    <!-- Generator: Sketch 3.3.3 (12072) - http://www.bohemiancoding.com/sketch -->
    <title>Rectangle 233 + logo-banner</title>
    <desc>Created with Sketch.</desc>
    <defs>
        <path id="path-1" d="M103.291763,54.1316809 C100.246125,81.8982508 92.1685627,63.9886962 92.1685627,63.9886962 C92.1685627,63.9886962 104.405064,75.683989 114.819577,57.5742259 L159.898454,0.0598025198 C128.627941,79.3111418 139.650601,130.418895 139.650601,130.418895 C140.62903,92.2648876 163.603735,60.4811484 163.603735,60.4811484 L262.719394,107.75634 L162.365372,235.273513 L0.711139339,191.802282 L72.5582824,53.518055 L103.291763,54.1316809"></path>
    </defs>
    <g id="YXTimes" stroke="none" stroke-width="1" fill="none" fill-rule="evenodd" sketch:type="MSPage">
        <g id="首页" sketch:type="MSArtboardGroup" transform="translate(0.000000, -41.000000)">
            <g id="Rectangle-233-+-logo-banner" sketch:type="MSLayerGroup" transform="translate(0.000000, 41.000000)">
                <rect id="Rectangle-233" fill="#D8D8D8" sketch:type="MSShapeGroup" x="0" y="0" width="1280" height="300"></rect>
                <g id="logo-banner" transform="translate(405.000000, 30.100334)">
                    <g id="Imported-Layers">
                        <mask id="mask-2" sketch:name="Clip 2" fill="white">
                            <use xlink:href="#path-1"></use>
                        </mask>
                        <g id="Clip-2"></g>
                        <path d="M152.191175,215.01346 C152.026877,191.99469 154.140678,168.801713 161.857766,147.363809 C170.612136,123.044985 187.392572,101.063658 210.171101,91.3808504 C174.905946,70.0807529 129.878565,67.9668638 93.0170255,86.0168243 C55.5228169,104.378798 27.528449,143.086629 20.529857,186.243247 C28.678533,175.481394 42.6659081,171.929644 55.667497,171.295218 C90.7855193,169.581745 126.322869,185.101799 150.114158,212.543356 C150.815488,213.35199 151.509462,214.176224 152.191175,215.01346" id="Fill-1" fill="#518B26" sketch:type="MSShapeGroup" mask="url(#mask-2)"></path>
                        <path d="M151.278955,215.702489 C155.070063,193.037334 161.134365,170.64259 172.404698,151.053365 C185.190493,128.832828 205.46532,110.460454 229.526352,105.338238 C198.510868,77.5846691 154.59924,66.8098151 115.256069,77.4364628 C75.2336376,88.2477183 41.0572619,120.902494 26.760909,161.986825 C36.6236759,152.977446 50.9862384,152.187012 63.8799302,154.074692 C98.703688,159.173507 130.979605,181.295239 149.6605,212.873569 C150.209794,213.804409 150.751731,214.748248 151.278955,215.702489" id="Fill-3" fill="#80B730" sketch:type="MSShapeGroup" mask="url(#mask-2)"></path>
                    </g>
                    <text id="Imported-Layers" sketch:type="MSTextLayer" font-family="Avenir" font-size="23.5039044" font-weight="420" letter-spacing="-1" fill="#80B730">
                        <tspan x="251.517839" y="223.250501">YXTIMES</tspan>
                    </text>
                    <g id="Imported-Layers" transform="translate(69.735476, 69.619507)" fill="#292929" sketch:type="MSShapeGroup">
                        <path d="M128.744288,110.536154 C124.048144,115.517417 119.274281,119.15872 114.684119,122.872251 C111.914478,125.111329 109.427453,128.533456 106.754372,131.041522 C106.62484,130.939406 107.562184,132.087587 109.020014,133.253202 C105.449626,134.802375 102.300808,136.075087 99.4393164,137.713923 C97.406833,138.877048 97.7224214,142.353969 94.1873605,142.979117 C89.2109558,143.860801 85.4309606,143.287956 82.2986282,139.076298 C80.6099949,140.132326 78.8813243,141.238166 75.6971788,143.22818 C88.2429944,146.73748 99.4934845,149.898091 110.972423,153.108515 C108.25224,158.281556 103.899946,156.134632 100.645147,156.037497 C96.4671333,155.910475 92.2938303,154.279111 88.1935365,153.021342 C84.0013924,151.733686 79.7597904,150.443539 75.7960946,148.55315 C72.0514265,146.769858 65.8409299,149.111051 63.4528208,152.65771 C60.7750299,156.630267 57.34124,160.184398 53.7072634,163.210515 C52.2800503,164.398546 49.3973624,163.484484 50.0002775,160.144548 C51.0365378,154.408624 52.4920126,148.752401 53.3516376,142.99157 C54.3549261,136.261885 54.8801217,129.452499 55.676158,122.682963 C55.9022512,120.77514 56.3379515,118.892222 56.7053529,117.001833 C56.9926797,115.524889 57.324754,114.055416 57.6379872,112.580963 C57.2776513,112.421562 56.9173153,112.262162 56.5569793,112.102762 C55.572532,113.768994 54.5880846,115.437717 54.0157863,116.404082 C52.550891,115.684289 51.3403505,115.089028 49.9767261,114.419049 C52.2447232,111.442744 54.6210566,108.324474 56.8796331,105.358132 C58.3845657,106.209928 59.5032559,106.845039 60.621946,107.477659 C60.758544,106.322006 61.3967861,104.578564 60.9281138,104.12527 C59.8235545,103.06177 58.1890893,102.615947 56.3144002,101.696904 C60.5936844,97.5898532 66.3355087,101.604751 72.0796882,99.6695303 C72.5318745,94.7729492 73.0358739,89.3259387 73.5398732,83.8814187 C71.4014087,83.9685908 72.6449211,76.1604618 68.2196184,81.3409748 C67.8475068,81.7768353 66.5875084,81.3658812 65.739659,81.3484467 C65.8173785,80.4792164 65.704332,79.5253047 66.0104998,78.7581902 C66.6087046,77.2488677 67.4377129,75.841661 68.3185342,74.1032004 C74.1898911,74.8155209 77.4658868,77.4381557 77.9227834,84.2276165 C78.2689886,89.398167 76.9406913,94.6758146 76.5638693,99.921084 C76.3236453,103.266002 76.815869,106.69311 76.3566172,109.988216 C75.4663754,116.349288 74.1333678,122.643113 72.8309769,129.821112 C79.0791558,125.803724 83.1158608,129.225851 86.1728288,132.329178 C86.6721179,135.131138 87.0089025,137.036471 87.3480423,138.941804 C89.3970116,138.244427 91.8204477,138.047667 93.4030999,136.725142 C95.4167421,135.043966 96.5165912,132.087587 99.8750167,132.934401 C100.18354,133.011611 100.765259,132.152343 101.13266,131.654217 C103.589068,128.319262 106.021925,124.961891 108.725622,121.253341 C108.768015,121.335532 108.289922,120.416489 108.240464,120.321845 C111.335114,116.625748 115.866398,116.867339 118.687852,112.396656 C123.313342,105.071709 129.198829,98.6209745 134.754598,91.9934047 C135.319831,91.3209343 137.298146,92.1204269 138.581696,91.9336296 C139.94061,91.7368697 141.704607,91.5874318 142.453541,90.6584264 C143.103559,89.8539525 142.745578,87.9635634 142.538326,86.6036787 C142.199186,84.4069419 141.619823,82.2500553 141.14173,80.0782248 C137.88222,85.8614706 132.107424,84.0831599 127.300589,84.7705741 C126.346758,84.9075588 124.950162,81.5850567 123.341603,79.2538259 C129.267128,77.8516005 134.342449,76.7183632 139.382442,75.4307069 C141.709318,74.835446 143.496867,73.9711969 143.21425,70.5166914 C142.60898,63.109554 142.77384,55.6301884 142.140308,48.2255416 C141.697542,43.042538 140.451675,37.9342533 139.486068,32.3353142 C141.881243,33.3141323 144.014997,34.1883438 145.995667,35.0002896 C146.165237,36.6241812 146.38191,38.6366113 146.579741,40.651532 C147.166171,46.5916875 147.896263,52.5218805 148.261309,58.4769799 C148.44501,61.4557749 147.49589,64.5615921 147.941011,67.4606868 C148.251889,69.4855701 150.058279,71.2514276 151.198165,73.1343448 C153.037527,71.8591416 154.87689,70.5864291 157.80668,68.5565646 C158.934791,69.7246707 160.97905,71.8466885 163.025664,73.9662157 C162.980916,74.5888735 162.936169,75.2140219 162.889066,75.8391704 C159.657818,76.7831196 156.471317,78.16542 153.181191,78.5514678 C149.839251,78.9424969 148.294281,80.1529437 148.150618,83.8266248 C147.83974,91.85642 147.255666,99.8762527 146.746956,108.468931 C151.680968,107.906048 156.391243,107.258484 161.120358,106.852511 C169.113694,106.170078 177.111739,105.313301 185.121561,105.15141 C191.732431,105.016916 197.243452,110.060444 197.21519,115.280807 C195.295753,115.499983 193.373961,115.888521 191.449814,115.888521 C189.652845,115.888521 187.855875,115.480058 185.039131,115.121407 C186.920885,113.67684 187.938305,112.894782 189.32548,111.828792 C187.137558,111.133906 185.28642,110.12271 183.399955,110.047991 C180.731585,109.943384 178.044374,110.63827 175.352452,110.800161 C169.893244,111.123943 164.525886,109.56979 158.904174,111.813848 C155.274908,113.260905 150.705942,112.085327 147.135554,112.085327 C147.135554,119.998063 147.100227,127.584525 147.15204,135.168498 C147.173236,138.498472 149.241046,138.112424 151.315922,137.509691 C156.308813,136.065125 161.280507,134.540859 166.292239,133.173502 C170.792906,131.945621 172.681726,135.522167 173.397688,138.867085 C173.732117,140.428711 171.141467,142.690204 169.299749,145.517071 C172.170662,145.04136 174.681238,144.625425 177.189459,144.206998 C177.307216,144.635387 177.424973,145.063776 177.542729,145.492164 C175.008602,147.073715 172.462699,148.635341 169.940347,150.239307 C165.338409,153.163308 160.741181,156.097272 156.158084,159.053651 C150.632932,162.620235 150.199587,162.550498 144.723893,156.36626 C148.310767,155.240495 151.591473,154.286583 154.815656,153.148365 C155.783617,152.807148 157.413372,151.82833 157.349784,151.347638 C156.556102,145.367633 161.06619,147.88068 163.732205,146.847068 C163.049215,145.962894 162.44159,145.175854 161.979983,144.578103 C163.159907,142.727563 164.24798,141.026462 166.047305,138.204577 C161.685591,139.801072 158.678081,140.996575 155.614047,141.997809 C152.931546,142.87202 149.919326,143.02893 147.547703,144.436137 C145.541126,145.624168 144.2458,148.149668 142.397018,150.36882 C141.104048,147.786036 138.635864,145.801002 141.74229,142.065056 C143.183634,140.326595 143.770063,136.28181 142.877466,134.167264 C140.074853,127.537203 142.319298,120.859821 141.280683,113.632009 C139.413059,114.58343 137.448875,115.584664 136.641063,115.993128 C134.01744,114.971969 132.102713,114.22727 130.199763,113.480081 C132.983535,108.745391 138.058855,111.93838 142.502999,110.112747 C140.852048,109.275895 140.070142,108.877394 140.19732,108.944641 C140.917992,105.78403 141.666925,103.024411 142.123822,100.212488 C142.302812,99.1166101 141.914215,96.9348172 141.622178,96.902439 C140.178479,96.7480198 138.202519,96.5836382 137.295791,97.4503778 C134.471981,100.152713 132.027349,101.706867 129.46967,104.71804 C127.649149,106.859983 125.885151,110.536154 123.358089,110.536154 L128.744288,110.536154 L128.744288,110.536154 Z M57.7698749,152.328947 C62.0326732,149.908053 65.1602953,148.129743 69.1192808,145.880703 C66.1376772,144.082467 63.4104284,142.43865 60.0873299,140.436183 C59.197088,145.011472 58.5282291,148.443562 57.7698749,152.328947 L57.7698749,152.328947 Z M83.4408698,134.54584 C83.3984773,134.19217 83.3560848,133.838501 83.3136924,133.48234 C78.7023338,134.281833 74.0886202,135.081326 68.2996931,136.08505 C70.3321764,138.817272 71.6604738,140.598074 72.6472762,141.92558 C76.6863364,139.165961 80.0636031,136.854655 83.4408698,134.54584 L83.4408698,134.54584 Z M63.7636989,113.604612 C64.2394367,118.695462 60.193311,123.778841 63.5611572,128.874672 C64.8588377,123.786313 67.2398814,118.700444 63.7636989,113.604612 L63.7636989,113.604612 Z M65.0967066,103.308343 C63.8178671,106.008187 65.4970799,107.348146 67.0491153,108.825091 C67.6261239,109.37303 67.9464225,110.224826 68.384478,110.939637 C69.1805144,110.28211 70.4711295,109.739152 70.6359891,108.934679 C70.8173347,108.055486 70.2097093,106.625863 69.500813,105.988262 C68.316179,104.922272 66.7759194,104.292142 65.0967066,103.308343 L65.0967066,103.308343 Z" id="Fill-1"></path>
                        <path d="M3.54284226,144.231905 C2.39589047,142.070037 1.5668822,140.510902 0.643668437,138.76995 C11.164066,133.581966 19.8050642,123.786313 33.4695699,125.086422 C31.547778,121.450101 34.7578299,118.757728 31.5783948,115.495001 C29.899182,113.766503 34.1337186,111.495048 35.6763334,111.131415 C36.8421263,114.864872 37.850125,115.517417 38.570797,120.49868 L53.3869647,120.49868 C51.7124622,120.49868 50.5490245,124.501124 49.597549,126.192263 C47.4520191,130.0104 44.4327333,133.611853 43.551912,137.753773 C42.160026,144.301642 37.3814527,148.403712 34.84497,154.035029 C34.4587275,154.891807 31.9340205,155.65394 31.255741,155.155813 C30.0169389,154.246733 28.6862864,152.343891 28.7051275,150.876909 C28.7475199,147.375081 29.5529768,143.883216 30.1346957,139.788619 C29.8403036,139.656615 28.6226977,139.111167 27.4074469,138.568209 C33.8605227,139.786128 30.1370509,134.458668 31.1897972,132.082605 C25.2148142,130.092591 21.1027448,134.637993 16.4513489,136.839711 C11.9082894,138.989126 7.66197712,141.840899 3.54284226,144.231905 L3.54284226,144.231905 Z M37.42149,136.087541 C37.7771157,136.411323 38.1350966,136.735105 38.4907223,137.058887 C40.7281026,133.786197 42.9654829,130.515998 45.492545,126.819902 C38.3070216,126.364116 37.9372651,131.293075 37.42149,136.087541 L37.42149,136.087541 Z" id="Fill-2"></path>
                        <path d="M10.768403,116.391629 C13.877184,109.495071 17.1767312,102.685685 20.0264471,95.6695765 C22.051865,90.6858233 23.2412093,85.3234942 25.2218796,80.3148348 C27.0212044,75.7569796 27.7536521,71.1293867 27.6994839,66.2602026 C27.6429606,61.2565244 27.6877082,56.2528462 27.6877082,51.2317336 C30.5232933,50.8855358 34.0065412,53.6252302 34.0795504,56.4720217 C34.2985782,64.7907301 34.5764844,73.2713296 31.3994044,81.0097209 C27.8266613,89.7094959 23.4178446,98.0282043 19.2822238,106.466463 C18.0057394,109.069173 16.5479095,111.597163 14.9558368,113.998132 C14.0867912,115.310695 12.7632042,116.287022 11.644514,117.412787 C11.352477,117.071571 11.06044,116.732845 10.768403,116.391629" id="Fill-3"></path>
                        <path d="M39.3432819,97.0269705 C42.091727,97.7118941 43.5566223,97.8712945 44.8095552,98.5064055 C45.2075734,98.7081466 45.4289563,100.588573 45.0544895,100.974621 C43.4812579,102.613456 41.8467927,104.60098 39.8684775,105.293376 C37.2118828,106.227362 34.2185035,106.085396 30.4926766,106.503822 C26.7692047,102.695647 26.9199335,102.421678 31.8327496,98.4541022 C36.5383136,94.6558896 40.9353546,90.4292883 45.7610306,86.1279681 C43.1256322,85.0395623 40.7257474,84.0507817 37.7488541,82.8204098 C44.4751258,78.2501015 53.8344408,80.0035059 55.9046063,85.2612284 C50.5301834,89.0793662 45.184022,92.8775788 39.3432819,97.0269705" id="Fill-4"></path>
                        <path d="M141.725804,155.551824 C140.209095,156.1695 139.759264,156.463395 139.669769,156.371242 C137.863379,154.503268 136.087605,152.600426 134.377776,150.635318 C134.325963,150.578033 135.041925,149.773559 135.399905,149.317774 C137.36409,151.252994 139.325919,153.185724 141.725804,155.551824" id="Fill-5"></path>
                        <path d="M264.06919,26.2479326 C263.47805,26.1283823 262.820967,25.9938882 262.809191,25.9913976 C262.809191,23.4160849 262.929303,21.0823634 262.783285,18.768567 C262.519509,14.5892877 262.738537,10.1933235 261.504445,6.33782634 C260.771998,4.05142685 260.585942,2.67161713 261.968407,1.10251944 C262.4465,0.562052454 263.388555,0.477370991 264.365937,0.73141538 C264.036218,1.06266934 263.704143,1.39392329 263.372069,1.72766788 C265.955655,3.74009794 268.687614,14.3875466 268.03053,18.5444101 C270.053593,21.4086361 271.676283,23.8967767 273.492093,26.2155544 C274.700279,27.7572552 276.059193,29.2341995 277.571191,30.4222306 C279.382291,31.8418904 281.622027,34.3648999 282.950324,34.40475 C286.094432,34.4969034 286.539553,36.5840524 286.99174,38.4968572 C287.297907,39.7845135 286.746805,41.8243405 285.861274,42.7931961 C284.243294,44.5665255 281.666774,45.4407371 280.258402,47.3286356 C277.592387,50.9076727 274.54955,53.7320486 270.628247,55.5776063 C270.242004,55.7594224 270.157219,56.6635216 269.895799,57.3235389 C268.706455,57.2662543 266.765822,56.0881858 267.898643,59.5949946 C268.633446,61.8664503 267.903353,64.650976 267.917484,67.2063637 C267.922194,68.4217917 268.266044,69.6422011 268.233072,70.8551385 C268.039951,77.457802 267.710232,84.0554842 267.580699,90.6581476 C267.535952,92.8523938 267.945745,95.0566024 268.152998,97.2583205 C268.169484,97.4476084 268.294306,97.6568215 268.249558,97.8236938 C266.535018,104.309298 267.293372,110.819808 267.818568,117.38013 C268.072923,120.553195 267.361671,123.80845 267.102606,127.028836 C267.043728,127.781007 267.144999,128.560574 267.008401,129.29282 C266.827055,130.251713 266.483205,131.175737 266.207654,132.117196 C265.296216,131.631522 263.814835,131.350081 263.579321,130.620326 C262.856294,128.381249 262.564257,125.97779 262.196856,123.621652 C261.857716,121.449822 261.598651,119.263048 261.384333,117.076273 C261.174726,114.934331 261.06639,112.779934 260.887399,110.264397 C261.869492,110.809845 262.453566,111.136118 263.131845,111.512203 C263.433303,106.045268 262.500668,100.862264 263.499247,95.5098973 C264.375358,90.8075855 263.673527,85.7640572 263.515733,80.8774387 C263.494536,80.2074589 262.590164,79.5673666 262.875135,78.9322557 C263.209565,74.6184823 263.543994,70.3071996 263.897265,65.7393819 C261.756445,63.7269518 261.756445,63.7269518 263.256667,61.4953462 C263.065901,61.2936051 262.875135,61.091864 262.684369,60.8876322 C261.115848,62.543902 259.547326,64.1976811 257.872824,65.9635387 C257.679703,65.7916851 257.260488,65.4205811 257.229871,65.3931841 C247.371267,72.2000794 237.701074,78.8774618 228.395927,85.3032904 C228.287591,86.5535873 228.214582,87.3879488 228.143928,88.2198196 C227.58105,87.9956628 227.020527,87.771506 226.354024,87.5025178 C226.266883,88.0230598 225.875931,88.8175711 226.102024,89.2584129 C227.712938,92.3891364 226.064342,95.6443914 226.547145,98.8249275 C227.086471,102.376568 227.31492,105.983002 227.793012,110.692785 C224.528792,109.522189 221.853356,108.324195 219.064874,107.619347 C215.508617,106.722719 211.928809,105.681635 208.285411,107.8709 C207.037189,108.62058 205.195471,108.192192 203.662277,108.510992 C201.818205,108.89455 199.884637,109.228294 198.236041,110.104997 C197.107931,110.705239 196.401389,112.192145 195.054251,113.835962 C194.237018,112.578193 192.713245,111.275593 192.717955,109.980465 C192.72502,108.34163 192.465955,106.199687 194.792831,105.046524 C197.065538,103.920759 198.911966,101.858516 201.012748,100.309344 C201.615663,99.8635208 202.449382,99.7713674 202.720222,99.6767234 C203.372595,98.4787298 203.688184,97.3554551 204.39708,96.7228347 C205.551097,95.694204 207.06074,95.1238495 208.235954,94.1176344 C209.938718,92.6556339 211.137482,90.9470609 208.026346,88.6905489 C211.954715,88.7403616 209.865708,86.434037 210.030568,85.0542273 C210.574605,80.5586379 211.088025,76.0555766 211.474267,71.5450433 C211.592024,70.1727055 211.137482,68.7530457 211.165744,67.3607828 C211.18694,66.3944179 211.584959,65.4355249 211.846379,64.3396471 C211.015015,63.9834868 210.077671,63.5800046 209.333447,63.2612038 C210.049409,57.3708608 210.75595,51.5552369 211.575538,44.8056261 C214.057853,46.1804546 216.377663,47.4631297 218.478445,48.6237639 C219.128463,46.6113338 219.542967,45.3186962 219.959826,44.0285492 C221.184498,44.6188288 222.623486,44.9525734 223.593803,45.8516913 C226.775593,48.7956174 226.909836,52.7756462 226.63664,56.8926596 C226.419967,60.1902554 226.389351,63.502795 226.377575,66.8103533 C226.37051,68.6484392 226.664902,70.4890157 226.653126,72.3246109 C226.64135,74.2872284 226.429388,76.2448645 226.262173,78.8948962 C227.858956,77.9883064 229.385085,77.544974 230.338916,76.5088714 C235.206984,71.2137894 241.448098,66.5687621 247.550258,63.4006791 C249.726405,62.2699325 251.45743,63.9262023 253.67597,56.4543085 L250.228049,56.4543085 C250.209208,56.4543085 250.190367,57.5900364 250.171525,57.241348 C251.433879,57.241348 252.696232,58.1305034 253.958586,58.1628816 C257.413572,58.2500537 260.289195,56.8478283 261.549193,53.5178543 C263.445078,48.4992323 263.534574,43.4407602 263.383845,38.1456782 C263.301415,35.2117145 262.9505,32.3948106 262.95521,29.4658282 C262.957565,28.399838 263.64762,27.4484169 264.06919,26.2479326 L264.06919,26.2479326 Z M221.627263,63.5625702 C220.715825,64.7954326 219.295678,65.9012729 218.98951,67.2835733 C218.184053,70.9049511 217.88024,74.6483699 217.345624,78.3394854 C217.072428,80.2298745 216.728578,82.1078105 216.382373,84.1825064 C218.014483,85.5199753 219.877396,85.2435153 221.773282,83.0816473 C223.216981,81.4328494 222.397393,74.8575829 220.510928,72.9472687 C223.002663,70.5861503 223.355934,67.041982 221.457693,63.4679262 C222.060609,63.0320657 223.205205,62.5364301 223.169878,62.165326 C223.054476,60.9324635 222.802477,59.4106879 222.029992,58.6659891 C221.57545,58.227638 220.032835,59.0545276 218.403081,59.4530286 C219.842069,61.2861332 220.734666,62.4243517 221.627263,63.5625702 L221.627263,63.5625702 Z M260.845007,22.7934271 L260.845007,48.9923773 C265.555281,48.474326 267.267466,48.4045883 268.171839,47.6997397 C271.730451,44.9276671 273.437925,41.956344 277.022444,38.9626052 C272.32159,33.7073733 270.265556,28.6015792 260.845007,22.7934271 L260.845007,22.7934271 Z M220.02106,92.4763084 C218.238221,93.6493958 216.424765,94.2172597 215.506262,97.0491074 C215.002263,98.5982801 214.229778,100.458782 214.95516,101.303106 C215.770037,102.252036 217.720091,102.274452 219.196762,102.379058 C220.565096,102.473702 221.964048,102.142448 223.610289,101.970595 C222.974402,98.8050025 224.104868,94.6431576 220.02106,92.4763084 L220.02106,92.4763084 Z" id="Fill-6"></path>
                        <path d="M257.882244,86.7752535 C257.076788,87.0043916 256.268976,87.2335296 255.263332,87.5224429 C256.841274,89.4078507 258.975028,90.9844203 259.570878,93.0566255 C259.898242,94.1873721 257.618469,96.1574615 255.974583,97.4550803 C256.219518,96.58585 256.464452,95.7166197 256.711741,94.8473894 C256.495069,95.0740369 256.280751,95.2981937 256.064079,95.5248411 C253.51582,93.208554 250.965207,90.892267 248.084874,88.2795948 C248.586518,87.1563201 249.187078,85.8088886 249.936012,84.1252218 C252.427747,86.6631751 254.867669,87.7266746 257.957609,85.751604 C257.931702,86.0928205 257.908151,86.434037 257.882244,86.7752535" id="Fill-7"></path>
                        <path d="M340.352257,66.0926566 C339.290755,66.0075718 338.226658,65.9252316 337.69461,65.8840615 C337.15218,72.5234246 336.614941,79.110639 336.069915,85.7692149 C337.429883,84.9540471 339.044196,83.9193055 340.715607,83.0025849 C342.039239,82.2779913 343.445924,81.7208227 344.79551,81.0428886 C346.674549,80.1042105 348.514658,79.0722136 350.40927,78.1692163 C353.336834,76.7721779 356.472027,75.756649 359.181581,73.9973139 C361.068407,72.7704452 362.524403,72.9296362 363.679337,74.3541213 C364.699313,75.6084367 365.753028,77.4912822 365.594711,78.9541927 C365.457157,80.2414442 363.736435,81.4134194 362.586691,82.4865864 C359.60722,85.2641951 356.464241,87.8551661 353.585989,90.7425618 C352.475175,91.8568989 351.338408,93.5119365 351.20864,95.0187618 C350.980249,97.6399241 348.865032,98.5291981 347.715288,100.211682 C346.331962,102.239996 346.67974,102.890483 348.447179,104.240862 C351.603135,106.650684 354.439861,109.527101 357.427119,112.189434 C358.081149,112.774049 358.732584,113.526089 359.508596,113.775855 C365.537614,115.716338 369.373553,121.331939 375.708823,123.799399 C376.054005,123.571591 377.014288,122.929338 378.112125,122.199255 C377.71763,123.107742 377.343898,123.96408 376.741775,125.350139 C380.414207,125.350139 383.684359,125.481884 386.938938,125.30348 C389.048964,125.185459 391.156395,124.707886 393.227491,124.213845 C395.373853,123.703336 398.32218,125.061949 399.443374,127.361984 C392.469647,130.364656 385.171499,131.660142 377.870756,130.128614 C373.990696,129.316191 370.427269,126.631901 366.824911,124.58712 C364.107571,123.044614 361.522594,121.224896 358.947999,119.421646 C358.221299,118.913882 357.80085,117.936778 357.115676,117.335695 C355.672657,116.067656 354.102465,114.964298 352.669827,113.685281 C351.156733,112.340391 349.646235,110.962565 348.312221,109.428293 C346.425395,107.260002 341.533145,107.762277 340.212107,110.237972 C338.955954,112.590156 337.237827,114.678852 336.090678,117.080441 C334.787808,119.808645 333.895005,122.753679 332.607707,126.18452 C328.940466,126.892645 324.354468,125.877116 321.769491,123.080295 C321.338662,122.616445 321.733156,121.397811 321.502169,120.6046 C321.086912,119.174626 320.487384,117.802289 319.965717,116.405251 L319.882666,116.4574 C320.923404,117.483907 321.992692,118.482968 322.997096,119.545157 C323.840587,120.437175 324.611408,121.406045 325.659933,122.627424 C326.679909,121.919298 327.645382,121.252343 328.610856,120.585388 C328.302008,120.516771 327.99316,120.445409 327.681717,120.376792 C327.681717,116.007274 327.572712,111.63501 327.733625,107.273725 C327.801104,105.500667 328.291627,103.686438 328.880773,102.006698 C330.149903,98.3864751 329.129927,96.2950345 325.766343,94.7772306 C323.292966,93.6601488 321.118056,91.8184734 318.725136,90.4735838 C317.596155,89.8423091 316.262141,89.6145013 314.588135,89.0600774 C315.013773,92.8998745 315.348575,95.913525 315.683376,98.9271756 C315.348575,99.0232392 315.013773,99.1193027 314.678972,99.2153663 C313.407247,94.6152949 312.138116,90.0152235 310.757386,85.0089406 C312.260098,82.632054 313.915937,84.6246864 316.147945,85.1708763 C319.15337,85.9037039 317.720732,86.6090847 320.290137,88.3958666 C321.971929,89.5623525 321.224466,90.7617745 321.224466,92.0792173 L321.224466,84.5478356 C321.224466,81.7070994 328.115142,79.2972768 328.203384,76.8270714 C328.431776,70.4511968 330.09021,64.0506201 329.991586,57.6610222 C329.957847,55.4597947 331.3256,53.2530779 331.377508,51.0463611 C331.439796,48.4828368 331.925128,45.9165679 331.925128,42.6888328 C330.121354,43.7702339 328.693907,44.7857628 327.858202,45.2852932 C327.354702,47.0007136 327.45073,48.4746028 326.921277,48.7106447 C323.505786,50.225704 321.154391,52.7864836 319.838545,56.6784294 C319.667251,57.1779598 319.290924,57.6500435 318.883453,57.9903829 C315.325216,60.9656081 314.035323,65.1265318 312.859626,69.5674122 C312.278266,71.757661 310.349915,73.5471875 308.958803,75.6166707 C309.69848,76.2150094 310.287626,76.6898377 310.560139,76.9094116 C305.805442,78.5315131 309.021091,82.8296705 308.211339,85.6484493 C307.295178,88.8405036 306.825418,92.2191956 306.51138,95.5539729 C306.295965,97.8704766 306.770916,100.250108 306.760534,102.602292 C306.744962,107.051407 306.591836,111.500521 306.513975,115.949635 C306.358254,124.861588 305.836587,133.790008 306.236272,142.674513 C306.417947,146.722905 306.607408,150.686213 305.950782,154.646775 C305.673079,156.32377 304.847755,157.896468 304.274181,159.518569 C303.967929,159.42525 303.661676,159.329187 303.352829,159.233123 C302.509337,157.388703 301.66325,155.541539 300.811973,153.68614 C300.098249,153.955118 299.493531,154.180181 299.38193,154.224096 C298.546225,152.47025 297.658613,150.944212 297.072062,149.300153 C295.725071,145.539951 294.279456,141.787984 293.355508,137.904272 C292.771553,135.458769 293.181619,132.766245 292.916893,130.210955 C292.737813,128.506513 291.977373,126.867943 291.803484,125.163502 C291.658144,123.758229 291.671121,122.15534 292.17462,120.890046 C293.877175,116.633059 295.444772,112.441944 294.30541,107.666213 C294.178237,107.136492 294.894556,106.381707 295.213785,105.742198 C294.466322,104.787052 293.713668,103.829161 292.963609,102.868526 C293.272457,102.956355 293.581305,103.04144 293.887557,103.129269 C294.544183,101.778891 295.21638,100.434001 295.854838,99.0726433 C296.685353,97.3050741 297.409458,95.4771221 298.328215,93.7644464 C299.132776,92.2631104 300.412288,90.9346888 298.733091,89.1835877 C298.587751,89.0326307 298.805761,88.2366756 299.060106,87.9457403 C302.153773,84.435304 305.019049,75.4355223 304.847755,71.0220887 C304.801039,69.7979647 303.781063,68.6177555 303.518932,68.0633316 C304.014645,65.4421692 304.717987,63.2244737 304.689438,61.0205015 C304.679057,60.3013973 302.815589,59.2446983 301.686609,59.0415925 C300.97029,58.9153376 299.768639,59.8896964 299.267735,60.7021195 C297.217402,64.0451308 293.210168,63.2821118 290.64855,65.4915733 C290.209934,65.8703381 289.366443,65.7523172 288.961567,66.1475501 C287.419924,67.6516307 286.200106,67.7065241 284.905022,65.7605512 C284.248396,64.7752137 283.18949,64.0863009 282.076081,63.04607 C287.375803,60.2327805 292.418584,57.55398 297.463961,54.8779241 C299.431242,54.5540528 303.970524,52.2622511 304.842564,49.9045773 C305.229273,48.8643463 304.930806,47.5167121 304.863327,46.3145454 C304.642722,42.4582803 304.30792,38.6047599 304.188534,34.7430055 C304.149604,33.4996688 304.88409,32.2261407 304.829588,30.9882933 C304.780276,29.917871 304.113269,28.8803847 303.770681,27.9609194 C303.39695,26.6407318 303.404736,25.1997787 302.732538,24.5657593 C301.014411,22.9491471 301.852712,20.8384938 301.338831,19.0242652 C302.122629,18.9748611 303.054362,18.615309 303.65389,18.9391803 C304.839969,19.5786891 305.839182,20.5997073 307.09274,21.6015128 C307.762342,23.9042932 308.808272,26.6077957 309.278032,29.4155959 C309.631,31.5097811 309.381846,33.7604127 309.140478,35.9094914 C308.852393,38.4510583 311.042875,40.608371 313.503275,40.3119463 C315.613301,40.0594364 317.775235,40.2597975 320.051364,40.8279448 C319.542674,41.07771 319.033983,41.3274752 318.525293,41.5772404 C318.559033,41.7446655 318.595368,41.9093458 318.629108,42.0767708 C319.436264,42.0246221 320.271969,42.0932389 321.045386,41.8956224 C322.906258,41.4235388 325.77932,42.7300029 325.872753,38.9176526 C325.880539,38.5882919 326.677314,38.2067824 327.162646,37.9734852 C330.339364,36.4337239 331.541015,32.1657579 335.293903,31.3917602 C335.540462,31.3396114 335.649467,30.6342305 335.854501,30.252721 C338.0917,26.1082653 340.336684,22.1394687 345.109548,20.467963 C346.882178,19.8449223 348.177262,17.701333 349.86684,16.0847208 C351.507107,17.9401195 352.765855,19.3618599 354.112846,20.8824086 C354.800616,20.2758359 355.420907,19.7269014 356.266994,18.9803504 C356.352641,19.6363272 356.529125,20.1084109 356.412334,20.2154531 C353.352406,23.0122746 353.396527,26.9673479 352.576394,30.7165707 C351.161924,37.2049769 349.134949,43.5396814 347.531018,49.9869174 C346.902941,52.5065269 347.201407,55.3747099 346.230743,57.6884689 C344.997948,60.6280133 342.900898,63.1640909 341.177581,65.8758275 C341.03224,62.1705194 340.349661,58.6491044 338.109867,55.3472631 C336.812188,60.61429 336.916002,61.5968828 338.662678,63.6691106 C339.290755,64.4156616 339.794255,65.2802335 340.352257,66.0926566 L340.352257,66.0926566 Z M294.038088,127.164368 C298.341192,129.118575 293.716263,135.579534 299.820546,136.95736 C298.008986,137.305933 297.204425,137.46238 295.642019,137.761549 C298.663016,140.580328 296.441389,145.666206 301.050746,147.431031 C301.453026,142.496109 302.234229,137.778017 302.120033,133.087372 C301.979884,127.320814 302.480788,121.56798 302.247206,115.850827 C302.13301,113.117133 305.104695,109.351442 300.50053,107.685426 C301.292114,106.988279 302.275755,106.549132 302.348425,105.983729 C302.794827,102.49525 303.0336,98.9793244 303.342447,95.4716327 C303.049172,95.3426331 302.755896,95.2136335 302.462621,95.0873786 C301.432263,97.5520946 300.401906,100.016811 299.324833,102.596803 C299.444219,102.668164 299.947719,102.967334 300.687396,103.409226 C299.66742,103.87582 298.938124,104.207926 298.520271,104.397308 C298.520271,105.967261 298.683779,107.199619 298.489127,108.366105 C297.923339,111.753031 295.911936,115.61753 296.859242,118.373181 C298.341192,122.676828 295.79255,124.342844 294.038088,127.164368 L294.038088,127.164368 Z M340.645532,56.1734096 C340.902473,56.2200691 341.159413,56.2667285 341.416354,56.3133879 C342.041835,54.9328176 343.064406,53.6016513 343.227914,52.1606982 C343.843014,46.7646717 344.167433,41.3302199 344.637193,35.9149807 C344.68391,35.3907482 344.964208,34.8802391 345.171837,34.377964 C345.825867,32.8135006 346.560354,31.2792286 347.082021,29.6681058 C347.152095,29.4540213 345.916705,28.391833 345.706481,28.5153432 C344.587881,29.179554 343.518594,30.0057005 342.58686,30.9443785 C340.040814,33.5051581 337.570032,36.1510226 335.070702,38.7639509 C337.954146,40.6605198 336.659062,42.0465794 335.984269,43.2844268 C337.121036,45.2276551 338.514743,46.9732669 339.223276,48.9878566 C340.020051,51.2549562 340.19913,53.7663317 340.645532,56.1734096 L340.645532,56.1734096 Z M341.387805,98.7405379 C343.150053,96.064482 345.026497,93.2868733 346.812103,90.4461371 C347.204003,89.8230964 347.419417,88.9749926 347.419417,88.2284416 C347.422013,87.9265276 346.526614,87.2732955 346.220362,87.3775931 C343.682101,88.2339309 340.946594,88.8377589 338.774279,90.3363502 C337.531102,91.1926881 337.227445,93.5723193 336.550057,95.1559954 C338.38238,96.5146084 340.051195,97.7497111 341.387805,98.7405379 L341.387805,98.7405379 Z M312.581923,53.9447354 C312.74024,54.2850748 312.895961,54.6254142 313.054278,54.9657536 C315.005987,53.6565448 316.962888,52.3473359 319.101463,50.9146168 C315.683376,49.3830895 314.419436,52.3171445 312.581923,53.9447354 L312.581923,53.9447354 Z M336.433266,101.397381 C335.719542,104.13382 335.132991,106.365239 334.549035,108.599402 C334.69178,108.69821 334.831929,108.799763 334.972079,108.901316 C336.186707,107.18864 337.401334,105.475965 338.727562,103.606843 C338.094295,102.997525 337.419502,102.344293 336.433266,101.397381 L336.433266,101.397381 Z M308.745983,57.3508742 C309.054831,59.5713144 309.278032,61.1632245 309.498637,62.75239 C309.804889,62.7386666 310.108546,62.7221986 310.414799,62.7057305 C310.941656,61.3086922 311.465919,59.9116538 312.065446,58.325233 C311.094782,58.039787 310.282435,57.8037452 308.745983,57.3508742 L308.745983,57.3508742 Z" id="Fill-8"></path>
                        <path d="M334.858825,139.385136 C332.842828,136.565742 332.718005,135.420051 334.26062,133.123689 C336.158861,135.101251 335.643086,137.243193 334.790526,139.427477 C334.783461,139.432458 334.858825,139.385136 334.858825,139.385136" id="Fill-9"></path>
                    </g>
                </g>
            </g>
        </g>
    </g>
</svg>