<?xml version="1.0" encoding="UTF-8" standalone="no"?>
<svg width="15px" height="21px" viewBox="0 0 15 21" version="1.1" xmlns="http://www.w3.org/2000/svg" xmlns:xlink="http://www.w3.org/1999/xlink" xmlns:sketch="http://www.bohemiancoding.com/sketch/ns">
    <!-- Generator: Sketch 3.3.3 (12072) - http://www.bohemiancoding.com/sketch -->
    <title>赛事icon</title>
    <desc>Created with Sketch.</desc>
    <defs></defs>
    <g id="YXTimes" stroke="none" stroke-width="1" fill="none" fill-rule="evenodd" sketch:type="MSPage">
        <g id="首页" sketch:type="MSArtboardGroup" transform="translate(-733.000000, -86.000000)" fill="#80B730">
            <g id="nav" sketch:type="MSLayerGroup" transform="translate(334.000000, 42.000000)">
                <g id="icon" transform="translate(193.000000, 44.000000)" sketch:type="MSShapeGroup">
                    <g id="赛事icon" transform="translate(205.888889, 0.617978)">
                        <g id="Group">
                            <path d="M7.11934156,3.12637752 C4.79506389,3.12637752 2.90394195,5.01041661 2.90394195,7.32598912 C2.90394195,9.64156163 4.79506389,11.5256007 7.11934156,11.5256007 C9.44361923,11.5256007 11.3347412,9.64156163 11.3347412,7.32598912 C11.3347412,5.01041661 9.44361923,3.12637752 7.11934156,3.12637752 L7.11934156,3.12637752 Z M7.11934156,10.1257302 C5.82811783,10.1257302 4.77745289,9.07900032 4.77745289,7.79261263 C4.77745289,6.50622493 5.82811783,5.45949508 7.11934156,5.45949508 C8.4101906,5.45949508 9.46123024,6.50622493 9.46123024,7.79261263 C9.46123024,9.07900032 8.4101906,10.1257302 7.11934156,10.1257302 L7.11934156,10.1257302 Z" id="Shape"></path>
                            <path d="M14.1450076,7.32598912 C14.1450076,3.46645274 10.9933875,0.326636458 7.11934156,0.326636458 C3.24529565,0.326636458 0.0936755469,3.46645274 0.0936755469,7.32598912 C0.0936755469,9.88793884 1.48681828,12.1266118 3.55367555,13.346179 L3.27901884,19.441402 C3.27864414,19.4522276 3.28351527,19.4619334 3.28388997,19.4727591 C3.28501408,19.4973968 3.2891358,19.5216612 3.29550574,19.5462989 C3.30187568,19.5709366 3.30899502,19.5952011 3.32023608,19.6168524 C3.32473251,19.6269315 3.32510721,19.6373838 3.33035304,19.6467163 C3.34047,19.6635147 3.35395928,19.6773268 3.36632445,19.6918855 C3.37231969,19.6997247 3.37719082,19.7071907 3.38393546,19.7146567 C3.41353693,19.7460138 3.44726013,19.7699049 3.48435564,19.7889431 C3.49259909,19.7934227 3.50121724,19.7964091 3.50946069,19.7990222 C3.5454321,19.8135809 3.58252762,19.82254 3.62112194,19.8258997 C3.62636777,19.8266463 3.6308642,19.8296327 3.63648473,19.8303793 L3.65372103,19.8303793 C3.69568768,19.8303793 3.73765432,19.8210468 3.77849686,19.8064882 C3.78973793,19.8020086 3.79985488,19.7986489 3.81072125,19.7934227 C3.82158761,19.7881965 3.83282868,19.7855835 3.84332034,19.7796107 L5.22634611,18.9695523 L6.33958631,19.761319 C6.34670565,19.7665452 6.3545744,19.768785 6.36206844,19.7721447 C6.37555772,19.7807306 6.3894217,19.7867033 6.40403509,19.7934227 C6.43363656,19.8072348 6.46323803,19.8169406 6.49433831,19.8217934 C6.50333117,19.8232866 6.51045051,19.8285128 6.51944336,19.8296327 C6.53180853,19.8303793 6.54417371,19.8311259 6.55653888,19.8311259 L6.55691358,19.8311259 L6.55766298,19.8311259 C6.61274421,19.8311259 6.6637037,19.8165673 6.71129088,19.7945426 C6.72515486,19.7878232 6.73639593,19.7792374 6.7491358,19.7710248 C6.78398311,19.7497468 6.81395928,19.7243624 6.84018843,19.6930053 C6.84655837,19.6851661 6.85630063,19.6829263 6.86229586,19.6739671 C6.86716699,19.6665011 6.8679164,19.6586619 6.87241282,19.6504493 C6.88665151,19.6276781 6.89601906,19.6037869 6.90501191,19.5791492 C6.91250596,19.5571246 6.9203747,19.537713 6.92374702,19.516435 C6.92487113,19.5085957 6.92936755,19.502623 6.93011696,19.4944104 L7.1249621,17.584987 L8.09281785,19.6161058 C8.10068659,19.6321576 8.11117825,19.6437299 8.12017111,19.6582886 C8.12729045,19.6683676 8.13291098,19.6795666 8.14115443,19.6896457 C8.1696318,19.7239891 8.20185618,19.7538531 8.2393264,19.7755044 C8.24082521,19.776251 8.24157462,19.7777442 8.24307342,19.7784908 C8.26030972,19.7885698 8.27867013,19.793796 8.29740524,19.801262 C8.30864631,19.8057416 8.32026207,19.8120877 8.33262725,19.8158207 C8.36560104,19.8244065 8.39894953,19.8296327 8.43192333,19.8296327 L8.43079922,19.8296327 L8.43117392,19.8296327 L8.43192333,19.8296327 C8.48288282,19.8296327 8.53121941,19.8165673 8.57730778,19.7967824 C8.58255361,19.7945426 8.58705003,19.7952892 8.59192116,19.7930494 C8.59491878,19.7915562 8.59641759,19.7885698 8.59978991,19.7870766 C8.63875893,19.7672918 8.67248213,19.7419075 8.70320771,19.7098038 C8.71070175,19.7023378 8.71482348,19.6944985 8.72156812,19.686286 C8.73243448,19.6717273 8.74517436,19.6594085 8.75454191,19.6433566 L9.38891271,18.5563105 L11.0012562,18.9236365 C11.0289842,18.9303559 11.0567122,18.9322224 11.0844401,18.9322224 L11.0855642,18.9322224 L11.0855642,18.9322224 L11.0859389,18.9322224 C11.1305285,18.9322224 11.1732445,18.9243831 11.2152112,18.9087046 C11.21671,18.9087046 11.2174594,18.9087046 11.2189582,18.907958 C11.2264522,18.9049716 11.230574,18.8993721 11.238068,18.8963857 C11.2721659,18.8810804 11.3040156,18.8620422 11.3321183,18.8374045 C11.3448581,18.8265788 11.3549751,18.8135134 11.3658415,18.8008212 C11.3842019,18.7795432 11.4003141,18.7578918 11.4138033,18.7328808 C11.4231709,18.7153358 11.4295408,18.6985373 11.4359108,18.6794991 C11.4404072,18.6664336 11.4486506,18.655608 11.452023,18.6414226 C11.4542712,18.6305969 11.4512736,18.6186514 11.4527724,18.6078257 C11.45577,18.583188 11.4568941,18.558177 11.4542712,18.5327927 C11.4527724,18.5074083 11.4490253,18.4823973 11.4426554,18.4592528 C11.4389084,18.4484271 11.4404072,18.4364816 11.4366602,18.4264025 L9.68680095,13.8322141 C12.2928547,12.8101219 14.1450076,10.2825157 14.1450076,7.32598912 L14.1450076,7.32598912 Z M6.25003249,18.7810364 L5.47065194,18.2270609 C5.46990253,18.2263143 5.46952783,18.2263143 5.46877843,18.2255677 L5.4639073,18.2210881 C5.45116742,18.2132489 5.43655404,18.2110091 5.42343946,18.2027965 C5.39458739,18.1874913 5.36611003,18.1706928 5.33426034,18.1636001 C5.3091553,18.1568808 5.28405025,18.1591205 5.2581958,18.1583739 C5.23571367,18.1576273 5.21398094,18.1531478 5.19112411,18.1568808 C5.15889972,18.1613603 5.12929825,18.1751724 5.09932207,18.1882379 C5.08508339,18.1949572 5.0697206,18.1957038 5.05585662,18.2027965 L5.04986138,18.2065295 C5.04986138,18.2065295 5.04948668,18.2065295 5.04948668,18.2072761 L4.0587741,18.7885023 L4.28696773,13.7261972 C5.03449859,14.05582 5.85059996,14.2547883 6.70679446,14.304437 L6.25003249,18.7810364 L6.25003249,18.7810364 Z M10.4864154,18.0437712 L9.28736842,17.7705165 C9.28099848,17.7690233 9.27500325,17.7712631 9.26863331,17.7697699 C9.24352827,17.7652903 9.21879792,17.7667835 9.19369287,17.7675301 C9.16933723,17.7682767 9.14573099,17.7675301 9.12249946,17.7720097 C9.10076673,17.7779825 9.08165692,17.7873149 9.0610483,17.7959008 C9.03744206,17.8059799 9.01421053,17.8141924 8.9928525,17.8287511 C8.9748668,17.84107 8.96062811,17.8578684 8.94489062,17.8739203 C8.92615551,17.8922119 8.9070457,17.9097569 8.89243232,17.9329015 C8.88868529,17.9381276 8.88343946,17.9407407 8.88006714,17.9467135 L8.46452242,18.6574745 L7.45807234,16.5453498 C7.41460689,16.4542649 7.33854234,16.3900575 7.25048733,16.3564606 L7.45957115,14.3085433 C7.9815313,14.283159 8.48775395,14.2028998 8.97411739,14.0692588 L10.4864154,18.0437712 L10.4864154,18.0437712 Z M7.11934156,12.2721983 C4.38176738,12.2721983 2.15453758,10.0533102 2.15453758,7.32598912 C2.15453758,4.59866802 4.38176738,2.3797799 7.11934156,2.3797799 C9.85729045,2.3797799 12.0841455,4.59866802 12.0841455,7.32598912 C12.0841455,10.0533102 9.85729045,12.2721983 7.11934156,12.2721983 L7.11934156,12.2721983 Z" id="Shape"></path>
                            <path d="M8.6503747,14.9547236 C8.46489712,15.0465551 8.38995668,15.271281 8.48213342,15.4556906 L9.18844704,16.8708664 C9.25364522,17.0030141 9.3862898,17.0787938 9.5241802,17.0787938 C9.57963613,17.0787938 9.63696556,17.0664749 9.69017327,17.0399707 C9.87527615,16.9481392 9.95059129,16.7241599 9.85841455,16.5397503 L9.15210093,15.1238279 C9.0610483,14.9386717 8.83547758,14.8625188 8.6503747,14.9547236 L8.6503747,14.9547236 Z" id="Shape"></path>
                        </g>
                    </g>
                </g>
            </g>
        </g>
    </g>
</svg>