<?xml version="1.0" encoding="UTF-8" standalone="no"?>
<svg width="15px" height="16px" viewBox="0 0 15 16" version="1.1" xmlns="http://www.w3.org/2000/svg" xmlns:xlink="http://www.w3.org/1999/xlink" xmlns:sketch="http://www.bohemiancoding.com/sketch/ns">
    <!-- Generator: Sketch 3.3.3 (12072) - http://www.bohemiancoding.com/sketch -->
    <title>search_icon</title>
    <desc>Created with Sketch.</desc>
    <defs></defs>
    <g id="YXTimes" stroke="none" stroke-width="1" fill="none" fill-rule="evenodd" sketch:type="MSPage">
        <g id="首页" sketch:type="MSArtboardGroup" transform="translate(-826.000000, -37.000000)">
            <g id="head" sketch:type="MSLayerGroup">
                <g id="搜索框" transform="translate(817.000000, 29.000000)" sketch:type="MSShapeGroup">
                    <rect id="Rectangle-67" fill="#FFFFFF" x="0" y="0" width="161" height="31" rx="8"></rect>
                    <g id="magnifier_1149256_easyicon.net" transform="translate(9.000000, 8.000000)" fill="#BABABA">
                        <path d="M14.4506836,11.7993164 L11.5164258,8.86415039 C11.9421387,8.03238281 12.1875,7.09259766 12.1875,6.09375 C12.1875,2.72827148 9.45922852,0 6.09375,0 C2.72780273,0 0,2.72827148 0,6.09375 C0,9.45922852 2.72780273,12.1875 6.09375,12.1875 C7.0884668,12.1875 8.02458984,11.9439551 8.85407227,11.5219043 C8.85316406,11.5219043 8.85131836,11.5228125 8.85041016,11.52375 C8.85498047,11.5209961 8.86048828,11.5191797 8.8659668,11.5164258 L11.7993164,14.4506836 C12.5326465,15.1831055 13.7201074,15.1831055 14.4506836,14.4506836 C15.1831055,13.7191699 15.1831055,12.5317383 14.4506836,11.7993164 L14.4506836,11.7993164 Z M1.40625,6.09375 C1.40625,3.50920898 3.50920898,1.40625 6.09375,1.40625 C8.67829102,1.40625 10.78125,3.50920898 10.78125,6.09375 C10.78125,8.67829102 8.67829102,10.78125 6.09375,10.78125 C3.50920898,10.78125 1.40625,8.67829102 1.40625,6.09375 L1.40625,6.09375 Z M13.4564355,12.7926563 C13.2733301,12.9757617 12.9766992,12.9757617 12.7935938,12.7926563 L11.4679102,11.4669727 C11.2848047,11.2838672 11.2848047,10.9872363 11.4679102,10.8041309 C11.6510156,10.6210254 11.9476465,10.6210254 12.130752,10.8041309 L13.4564355,12.1298145 C13.6404492,12.3129199 13.6404492,12.6095508 13.4564355,12.7926563 L13.4564355,12.7926563 Z" id="Shape"></path>
                    </g>
                </g>
            </g>
        </g>
    </g>
</svg>