<?xml version="1.0" encoding="UTF-8" standalone="no"?>
<svg width="20px" height="20px" viewBox="0 0 20 20" version="1.1" xmlns="http://www.w3.org/2000/svg" xmlns:xlink="http://www.w3.org/1999/xlink" xmlns:sketch="http://www.bohemiancoding.com/sketch/ns">
    <!-- Generator: Sketch 3.3.3 (12072) - http://www.bohemiancoding.com/sketch -->
    <title>聚焦icon</title>
    <desc>Created with Sketch.</desc>
    <defs></defs>
    <g id="YXTimes" stroke="none" stroke-width="1" fill="none" fill-rule="evenodd" sketch:type="MSPage">
        <g id="首页" sketch:type="MSArtboardGroup" transform="translate(-527.000000, -86.000000)" fill="#80B730">
            <g id="nav" sketch:type="MSLayerGroup" transform="translate(334.000000, 42.000000)">
                <g id="icon" transform="translate(193.000000, 44.000000)" sketch:type="MSShapeGroup">
                    <g id="聚焦icon">
                        <g id="Group">
                            <path d="M17.5761873,14.4472727 L11.5386622,12.8654545 C11.5016388,12.8545455 11.4664214,12.8472727 11.429398,12.8454545 L10.4983946,12.5990909 C10.2112375,12.5227273 9.90602007,12.6081818 9.6929097,12.8190909 C9.4861204,13.0290909 9.4048495,13.3390909 9.48250836,13.6290909 L10.9002341,18.9136364 C10.9390635,19.0609091 11.0167224,19.19 11.1187625,19.2909091 C11.3020736,19.4727273 11.5648495,19.5672727 11.8348495,19.5236364 C13.8476589,19.2018182 15.7394649,18.2254545 17.1644147,16.7772727 C17.4732441,16.4618182 17.7658194,16.1209091 18.0322074,15.7627273 C18.1983612,15.54 18.2435117,15.2481818 18.1523077,14.9845455 C18.0611037,14.7209091 17.8461873,14.5172727 17.5761873,14.4472727 L17.5761873,14.4472727 Z" id="Shape"></path>
                            <path d="M12.2005686,7.34909091 C12.2095987,7.38 12.2195318,7.41 12.2303679,7.44181818 L12.4967559,8.42363636 C12.5355853,8.56727273 12.6114381,8.69636364 12.7134783,8.79636364 C12.8173244,8.89818182 12.9446488,8.97454545 13.0891304,9.01272727 C13.3762876,9.08818182 13.683311,9.00454545 13.8919064,8.79181818 L17.7206689,4.90181818 C18.0204682,4.59636364 18.0430435,4.11363636 17.7757525,3.78272727 C16.2144482,1.85272727 13.9289298,0.603636364 11.4673244,0.300909091 C11.1882943,0.267272727 10.9173913,0.374545455 10.7340803,0.585454545 C10.5525753,0.795454545 10.4884615,1.08636364 10.5625084,1.35636364 L12.2005686,7.34909091 L12.2005686,7.34909091 Z" id="Shape"></path>
                            <path d="M18.5812375,5.64181818 C18.3076254,5.58909091 18.0276923,5.67727273 17.8317391,5.87545455 L12.7116722,11.08 C12.5021739,11.2936364 12.420903,11.6045455 12.5021739,11.8945455 C12.5391973,12.0390909 12.6168562,12.1654545 12.7188963,12.2672727 C12.8209365,12.3681818 12.9518729,12.4436364 13.0945485,12.4809091 L18.3554849,13.8618182 C18.7699666,13.97 19.1970903,13.7463636 19.34699,13.3445455 C20.2183946,11.0027273 20.161505,8.44363636 19.1916722,6.14 C19.082408,5.88090909 18.8548495,5.69454545 18.5812375,5.64181818 L18.5812375,5.64181818 Z" id="Shape"></path>
                            <path d="M8.11083612,11.4563636 C8.03317726,11.1681818 7.80923077,10.9427273 7.52117057,10.8645455 C7.23220736,10.7881818 6.92518395,10.8718182 6.7138796,11.0836364 L2.89143813,14.9709091 C2.5916388,15.2745455 2.56906355,15.76 2.83725753,16.0909091 C3.04856187,16.3554545 3.27792642,16.6045455 3.51270903,16.8381818 C5.00267559,18.3254545 6.98658863,19.2936364 9.09782609,19.5636364 C9.37505017,19.6 9.64866221,19.4945455 9.83016722,19.2818182 C10.0116722,19.0727273 10.080301,18.7827273 10.0062542,18.5109091 L8.11083612,11.4563636 L8.11083612,11.4563636 Z" id="Shape"></path>
                            <path d="M2.71083612,5.13636364 C2.81016722,5.23636364 2.93658863,5.31181818 3.07926421,5.35 L10.081204,7.25 C10.3692642,7.32727273 10.6771906,7.24363636 10.888495,7.03181818 C11.0979933,6.81909091 11.1810702,6.50818182 11.1016054,6.21727273 L9.66672241,0.961818182 C9.55204013,0.548181818 9.14839465,0.286363636 8.72668896,0.356363636 C6.73374582,0.686363636 4.85909699,1.66090909 3.4467893,3.09636364 C3.15692308,3.39 2.88421405,3.70636364 2.63498328,4.03181818 C2.4661204,4.25454545 2.42006689,4.54545455 2.50675585,4.81 C2.5473913,4.93545455 2.62143813,5.04727273 2.71083612,5.13636364 L2.71083612,5.13636364 Z" id="Shape"></path>
                            <path d="M7.93113712,8.75909091 C8.13792642,8.54818182 8.21919732,8.23909091 8.14153846,7.94909091 C8.0638796,7.66272727 7.84173913,7.43727273 7.55548495,7.36 L2.28732441,5.93090909 C1.87645485,5.81909091 1.44662207,6.04 1.29130435,6.44090909 C0.384682274,8.80818182 0.430735786,11.3990909 1.41862876,13.7345455 C1.46377926,13.8354545 1.52428094,13.9263636 1.60013378,14.0018182 C1.71662207,14.1172727 1.86471572,14.1990909 2.02996656,14.23 C2.3035786,14.2836364 2.5826087,14.1954545 2.77946488,13.9963636 L7.93113712,8.75909091 L7.93113712,8.75909091 Z" id="Shape"></path>
                        </g>
                    </g>
                </g>
            </g>
        </g>
    </g>
</svg>