<?xml version="1.0" encoding="UTF-8" standalone="no"?>
<svg width="26px" height="14px" viewBox="0 0 26 14" version="1.1" xmlns="http://www.w3.org/2000/svg" xmlns:xlink="http://www.w3.org/1999/xlink" xmlns:sketch="http://www.bohemiancoding.com/sketch/ns">
    <!-- Generator: Sketch 3.3.3 (12072) - http://www.bohemiancoding.com/sketch -->
    <title>观点icon</title>
    <desc>Created with Sketch.</desc>
    <defs></defs>
    <g id="YXTimes" stroke="none" stroke-width="1" fill="none" fill-rule="evenodd" sketch:type="MSPage">
        <g id="首页" sketch:type="MSArtboardGroup" transform="translate(-630.000000, -89.000000)" fill="#80B730">
            <g id="nav" sketch:type="MSLayerGroup" transform="translate(334.000000, 42.000000)">
                <g id="icon" transform="translate(193.000000, 44.000000)" sketch:type="MSShapeGroup">
                    <path d="M118.844096,9.93774272 C118.844096,11.4458738 117.621584,12.6683252 116.113514,12.6683252 C114.605443,12.6683252 113.382931,11.4458738 113.382931,9.93774272 C113.382931,8.42967233 114.605443,7.20716019 116.113514,7.20716019 C117.621584,7.20716019 118.844096,8.42967233 118.844096,9.93774272 L118.844096,9.93774272 Z M128.492155,9.49271845 C128.492155,9.49271845 124.062543,16.8754854 116.007324,16.8754854 C108.528562,16.8754854 103.492155,9.49271845 103.492155,9.49271845 C103.492155,9.49271845 108.124011,3 116.007324,3 C124.02213,3 128.492155,9.49271845 128.492155,9.49271845 L128.492155,9.49271845 Z M120.967883,9.93774272 C120.967883,7.25673544 118.794521,5.08337379 116.113514,5.08337379 C113.432507,5.08337379 111.259145,7.25673544 111.259145,9.93774272 C111.259145,12.6188107 113.432507,14.7921117 116.113514,14.7921117 C118.794521,14.7921117 120.967883,12.6188107 120.967883,9.93774272 L120.967883,9.93774272 Z" id="观点icon"></path>
                </g>
            </g>
        </g>
    </g>
</svg>