<?xml version="1.0" encoding="UTF-8" standalone="no"?>
<svg width="127px" height="21px" viewBox="0 0 127 21" version="1.1" xmlns="http://www.w3.org/2000/svg" xmlns:xlink="http://www.w3.org/1999/xlink" xmlns:sketch="http://www.bohemiancoding.com/sketch/ns">
    <!-- Generator: Sketch 3.4 (15575) - http://www.bohemiancoding.com/sketch -->
    <title>logo-ho.</title>
    <desc>Created with Sketch.</desc>
    <defs>
        <path id="path-1" d="M13.9128226,6.86340659 C13.5025922,10.383956 12.4145898,8.11318681 12.4145898,8.11318681 C12.4145898,8.11318681 14.062778,9.59604396 15.4655547,7.29989011 L21.5374273,0.00758241758 C17.3254641,10.0559341 18.8101547,16.5359341 18.8101547,16.5359341 C18.9419437,11.6983516 22.0365079,7.66846154 22.0365079,7.66846154 L35.3865024,13.6625275 L21.8697073,29.8305495 L0.0957864908,24.3187912 L9.77319474,6.7856044 L13.9128226,6.86340659"></path>
    </defs>
    <g id="Page-1" stroke="none" stroke-width="1" fill="none" fill-rule="evenodd" sketch:type="MSPage">
        <g id="head-copy" sketch:type="MSLayerGroup" transform="translate(-70.000000, -11.000000)">
            <g id="logo-ho." transform="translate(68.000000, 3.000000)">
                <path d="M51.1955672,19.1208791 C50.5369525,19.7802198 49.8677683,20.2621978 49.2236867,20.7537363 C48.835256,21.0497802 48.4861307,21.5030769 48.1115725,21.8350549 C48.0934061,21.8215385 48.2248648,21.9735165 48.4293194,22.1278022 C47.9285873,22.3328571 47.4869785,22.5013187 47.0856662,22.7182418 C46.8002885,22.8721978 46.8448788,23.3324176 46.3491011,23.4151648 C45.6511809,23.5318681 45.1210522,23.456044 44.6817556,22.8985714 C44.4449317,23.0383516 44.2024928,23.1847253 43.7559296,23.4481319 C45.5154283,23.9126374 47.093263,24.330989 48.7031367,24.7559341 C48.3216422,25.4406593 47.711251,25.1564835 47.2547789,25.1436264 C46.6688298,25.1268132 46.0835413,24.9108791 45.5084921,24.7443956 C44.9205612,24.573956 44.325694,24.4031868 43.7698021,24.152967 C43.2442976,23.9169231 42.3736314,24.2268132 42.038709,24.6962637 C41.6631599,25.2220879 41.1815851,25.6925275 40.6719349,26.0930769 C40.4717741,26.2503297 40.0674891,26.1293407 40.1520454,25.6872527 C40.2973767,24.928022 40.501501,24.1793407 40.6220598,23.4168132 C40.7627669,22.526044 40.8364234,21.6247253 40.9480642,20.729011 C40.9794425,20.4761538 41.040878,20.2269231 41.0924045,19.9767033 C41.1327009,19.7812088 41.179273,19.5867033 41.2232026,19.3915385 C41.172667,19.3704396 41.1221314,19.3493407 41.0715957,19.3282418 C40.9335311,19.5487912 40.7954664,19.7696703 40.7152039,19.8975824 C40.5097584,19.8023077 40.3399851,19.7235165 40.1487425,19.6348352 C40.4668197,19.2408791 40.8000906,18.8281319 41.1168466,18.4354945 C41.3279072,18.5482418 41.4847988,18.6323077 41.6416905,18.716044 C41.6608478,18.5630769 41.7503586,18.3323077 41.6846293,18.2723077 C41.5297194,18.1315385 41.3004924,18.0725275 41.037575,17.9508791 C41.6377269,17.4072527 42.4429941,17.9386813 43.2485915,17.6825275 C43.3120087,17.0343956 43.3826926,16.3134066 43.4533764,15.5927473 C43.1534656,15.6042857 43.327863,14.5707692 42.7072326,15.2564835 C42.6550455,15.3141758 42.478336,15.2597802 42.3594286,15.2574725 C42.3703284,15.1424176 42.3544741,15.0161538 42.3974129,14.9146154 C42.4813087,14.7148352 42.5975736,14.5282418 42.7211052,14.2984615 C43.5445387,14.3927473 44.0039836,14.7398901 44.0680614,15.6385714 C44.1166153,16.322967 43.930327,17.0215385 43.8774793,17.7158242 C43.8437889,18.1585714 43.9128212,18.6121978 43.8484131,19.0483516 C43.7235603,19.8903297 43.5366115,20.7234066 43.3539566,21.6735165 C44.2302379,21.1417582 44.796369,21.5947253 45.2250962,22.0054945 C45.2951194,22.3763736 45.342352,22.6285714 45.3895847,22.8807692 C45.6772745,22.7884615 46.0171514,22.7624176 46.2391118,22.5873626 C46.5215168,22.3648352 46.6757661,21.9735165 47.1467713,22.0856044 C47.1900404,22.0958242 47.2716241,21.9820879 47.3231506,21.9161538 C47.6676517,21.4747253 48.0088498,21.0303297 48.3880321,20.5394505 C48.3939775,20.5503297 48.326927,20.4286813 48.3199907,20.4161538 C48.7540026,19.9269231 49.3894964,19.9589011 49.7851937,19.3671429 C50.4338995,18.3975824 51.2593148,17.5437363 52.0384883,16.6664835 C52.1177599,16.5774725 52.3952104,16.6832967 52.575223,16.6585714 C52.7658051,16.6325275 53.0131985,16.6127473 53.1182333,16.4897802 C53.2093956,16.3832967 53.1591903,16.1330769 53.130124,15.9530769 C53.0825611,15.6623077 53.0013077,15.3768132 52.9342572,15.0893407 C52.4771244,15.8548352 51.6672331,15.6194505 50.9930944,15.7104396 C50.8593236,15.7285714 50.6634567,15.2887912 50.437863,14.9802198 C51.2688934,14.7949451 51.9806861,14.6446154 52.6875244,14.4741758 C53.0138591,14.3953846 53.2642251,14.280989 53.2249196,13.8237363 C53.140033,12.8432967 53.1631539,11.8532967 53.0743036,10.8731868 C53.0122076,10.1871429 52.8374798,9.51098901 52.7020575,8.76989011 C53.0379708,8.89945055 53.337221,9.01516484 53.6150019,9.12263736 C53.6387833,9.33758242 53.6691708,9.60395604 53.6969158,9.87065934 C53.7791601,10.6569231 53.8815525,11.4418681 53.9327488,12.2301099 C53.958512,12.6243956 53.8254018,13.0354945 53.8878282,13.4192308 C53.9314276,13.6872527 54.1847663,13.920989 54.3446307,14.1702198 C54.6025936,14.0014286 54.8602262,13.832967 55.2714476,13.5642857 C55.4296604,13.7189011 55.7163593,13.9997802 56.0033885,14.2803297 C55.9971128,14.3627473 55.9908371,14.4454945 55.9842312,14.5282418 C55.531062,14.6531868 55.0841684,14.8361538 54.6227418,14.8872527 C54.1540486,14.939011 53.9370426,15.0992308 53.9172248,15.5854945 C53.8736254,16.6483516 53.7913811,17.7095604 53.720367,18.8475824 C54.4123418,18.7727473 55.0729383,18.687033 55.7361772,18.6332967 C56.8572094,18.542967 57.9789023,18.4295604 59.1022466,18.4081319 C60.0293938,18.3903297 60.8022916,19.0579121 60.7983281,19.7489011 C60.529135,19.7779121 60.2596116,19.8293407 59.989758,19.8293407 C59.7377404,19.8293407 59.4857228,19.7752747 59.0906861,19.7278022 C59.3545944,19.5365934 59.4972833,19.4330769 59.691829,19.291978 C59.3849819,19.2 59.1253675,19.0661538 58.8607986,19.0562637 C58.4865707,19.0424176 58.1097004,19.1343956 57.7321695,19.1558242 C56.9665381,19.1986813 56.2137884,18.992967 55.4253665,19.29 C54.9160466,19.4815385 54.2755983,19.3259341 53.7748662,19.3259341 C53.7748662,20.3732967 53.7699117,21.3774725 53.7771783,22.3813187 C53.780151,22.8220879 54.0701528,22.770989 54.3611456,22.6912088 C55.0613779,22.5 55.7586375,22.2982418 56.4615121,22.1172527 C57.0927121,21.9547253 57.3576113,22.4281319 57.4580219,22.8708791 C57.5049243,23.0775824 57.1415962,23.3769231 56.883303,23.7510989 C57.2859365,23.6881319 57.6380345,23.6330769 57.9898021,23.5776923 C58.006317,23.6343956 58.0228319,23.6910989 58.0393468,23.7478022 C57.6839459,23.9571429 57.3268935,24.1638462 56.9731441,24.3761538 C56.3277413,24.7631868 55.6829992,25.1515385 55.0402388,25.5428571 C54.2653591,26.0149451 54.2045842,26.0057143 53.4366408,25.1871429 C53.939685,25.0381319 54.3997905,24.9118681 54.8519688,24.7612088 C54.9877214,24.716044 55.2162877,24.5864835 55.2073697,24.5231868 C55.0960592,23.7313187 55.7285803,24.063956 56.1024779,23.9271429 C56.0066914,23.8101099 55.9214745,23.7059341 55.856736,23.6271429 C56.0222155,23.3818681 56.174483,23.1567033 56.4268308,22.7831868 C55.8154488,22.9945055 55.3936579,23.1527473 54.9639399,23.2852747 C54.5877302,23.400989 54.1652787,23.4217582 53.8326684,23.608022 C53.5512543,23.7656044 53.3695903,24.0995604 53.1103061,24.3932967 C52.9289724,24.0514286 52.5828198,23.7886813 53.0184832,23.2941758 C53.2206258,23.0643956 53.30287,22.5286813 53.177687,22.2487912 C52.7846321,21.3712088 53.0994063,20.4873626 52.9537448,19.5306593 C52.6918183,19.6565934 52.4163495,19.7891209 52.3033875,19.8431868 C51.935105,19.708022 51.6665725,19.6094505 51.3996915,19.5105495 C51.7901041,18.8838462 52.5018968,19.3064835 53.1251696,19.0648352 C52.8936305,18.9540659 52.7839715,18.9013187 52.8018076,18.9102198 C52.9028788,18.4918681 53.0079137,18.1265934 53.0719915,17.7547253 C53.0970942,17.6093407 53.042595,17.3205495 53.001638,17.3162637 C52.7991652,17.2954945 52.522045,17.2737363 52.3948801,17.3887912 C51.9988526,17.7464835 51.656003,17.9525275 51.2972991,18.3507692 C51.0419785,18.6342857 50.7945852,19.1208791 50.4401751,19.1208791 L51.1955672,19.1208791 L51.1955672,19.1208791 Z M41.2416993,24.6530769 C41.8395392,24.3323077 42.2781752,24.0969231 42.8334066,23.7992308 C42.415249,23.5612088 42.0327636,23.3436264 41.5667128,23.0785714 C41.4418601,23.6841758 41.3480554,24.1387912 41.2416993,24.6530769 L41.2416993,24.6530769 Z M44.8419502,22.2992308 C44.8360048,22.2520879 44.8300595,22.2052747 44.8241141,22.1581319 C44.1773901,22.263956 43.5303359,22.3697802 42.7184628,22.5026374 C43.0038405,22.8642857 43.1897984,23.1 43.3281933,23.2757143 C43.8946548,22.9101099 44.3683025,22.6045055 44.8419502,22.2992308 L44.8419502,22.2992308 Z M42.0823084,19.527033 C42.1490286,20.2008791 41.5815762,20.8737363 42.0539027,21.5482418 C42.2358971,20.8747253 42.5698286,20.2015385 42.0823084,19.527033 L42.0823084,19.527033 Z M42.2692572,18.1641758 C42.0899052,18.5215385 42.3254079,18.6989011 42.5430744,18.8943956 C42.6239975,18.9669231 42.6689181,19.0796703 42.7303535,19.1742857 C42.8419943,19.0872527 43.0229978,19.0153846 43.0461186,18.9089011 C43.0715516,18.7925275 42.9863347,18.6032967 42.8869149,18.5189011 C42.7207749,18.3778022 42.5047598,18.2943956 42.2692572,18.1641758 L42.2692572,18.1641758 Z" id="Fill-1" fill="#EDEDED" sketch:type="MSShapeGroup"></path>
                <path d="M33.6365823,23.580989 C33.475727,23.2948352 33.359462,23.0884615 33.2299851,22.858022 C34.7054274,22.1713187 35.9172916,20.8747253 37.8336821,21.0468132 C37.5641587,20.5651648 38.0143552,20.2091209 37.5684526,19.7772527 C37.3329499,19.5487912 37.9268262,19.2478022 38.1431715,19.1996703 C38.3066691,19.6938462 38.4480368,19.7802198 38.5491081,20.4395604 L40.6270143,20.4395604 C40.3921723,20.4395604 40.2290049,20.9693407 40.0955644,21.1931868 C39.7946627,21.6985714 39.3708901,22.1756044 39.2476888,22.7235165 C39.0524826,23.5902198 38.3823074,24.1331868 38.0265762,24.8785714 C37.9724073,24.991978 37.6183276,25.0925275 37.5232017,25.0269231 C37.3494648,24.9065934 37.1628463,24.6547253 37.1654887,24.4605495 C37.1714341,23.997033 37.2843961,23.5348352 37.3659797,22.9928571 C37.3246925,22.9753846 37.1539283,22.9031868 36.9834944,22.8313187 C37.8885116,22.9925275 37.36631,22.287033 37.5139534,21.9728571 C36.6759867,21.7094505 36.099286,22.3110989 35.4469469,22.6025275 C34.8098016,22.887033 34.2142739,23.2641758 33.6365823,23.580989 L33.6365823,23.580989 Z M38.3879225,22.502967 C38.4377975,22.5458242 38.4876726,22.5886813 38.5378779,22.6315385 C38.8516612,22.1983516 39.1654446,21.7654945 39.5198546,21.2762637 C38.5121147,21.2159341 38.4602578,21.8683516 38.3879225,22.502967 L38.3879225,22.502967 Z" id="Fill-2" fill="#EDEDED" sketch:type="MSShapeGroup"></path>
                <path d="M34.6499373,19.8959341 C35.085931,18.9830769 35.5486788,18.0817582 35.9483397,17.1530769 C36.2320659,16.4934066 36.3991968,15.783956 36.6769776,15.1206593 C36.9293255,14.5173626 37.0320482,13.9048352 37.0244514,13.2603297 C37.0165242,12.598022 37.0227999,11.9357143 37.0227999,11.2710989 C37.420479,11.2252747 37.9089901,11.5879121 37.9192293,11.9647253 C37.949947,13.0658242 37.9889222,14.1883516 37.5433499,15.2126374 C37.0422875,16.3641758 36.4239692,17.4656044 35.8439654,18.5821978 C35.6649438,18.9267033 35.4604892,19.2613187 35.2372076,19.5791209 C35.1153275,19.7528571 34.9296999,19.8820879 34.7728082,20.0310989 C34.7318512,19.9859341 34.6908943,19.9410989 34.6499373,19.8959341" id="Fill-3" fill="#EDEDED" sketch:type="MSShapeGroup"></path>
                <path d="M38.6574459,17.3327473 C39.0429039,17.4234066 39.2483494,17.4445055 39.4240681,17.5285714 C39.4798885,17.5552747 39.5109365,17.8041758 39.4584191,17.8552747 C39.2377799,18.0725275 39.0085529,18.3349451 38.7311024,18.4269231 C38.358526,18.5505495 37.9387169,18.5317582 37.4161851,18.5871429 C36.8939836,18.0830769 36.9151226,18.0468132 37.6041248,17.5216484 C38.2640607,17.0189011 38.8807275,16.4594505 39.5575086,15.8901099 C39.1879049,15.746044 38.8513309,15.6151648 38.433834,15.4523077 C39.3771658,14.8473626 40.689771,15.0794505 40.9801031,15.7753846 C40.2263625,16.2807692 39.4765855,16.7835165 38.6574459,17.3327473" id="Fill-4" fill="#EDEDED" sketch:type="MSShapeGroup"></path>
                <path d="M53.0161711,25.0793407 C52.8034591,25.1610989 52.7403721,25.2 52.7278208,25.1878022 C52.474482,24.9405495 52.2254371,24.6886813 51.9856406,24.4285714 C51.9783741,24.420989 52.0787847,24.3145055 52.1289901,24.2541758 C52.4044588,24.5103297 52.6795972,24.7661538 53.0161711,25.0793407" id="Fill-5" fill="#EDEDED" sketch:type="MSShapeGroup"></path>
                <path d="M70.8057043,12.1556044 C70.7227994,12.1397802 70.6306462,12.121978 70.6289947,12.1216484 C70.6289947,11.7807692 70.6458399,11.4718681 70.6253614,11.1656044 C70.588368,10.6124176 70.6190858,10.0305495 70.4460095,9.52021978 C70.3432867,9.21758242 70.3171932,9.03494505 70.5110782,8.82725275 C70.5781288,8.75571429 70.7102481,8.74450549 70.8473218,8.77813187 C70.8010801,8.82197802 70.754508,8.86582418 70.707936,8.91 C71.0702732,9.17637363 71.4534191,10.5857143 71.3612659,11.1359341 C71.6449921,11.5150549 71.8725676,11.8443956 72.1272275,12.1513187 C72.2966705,12.3553846 72.4872526,12.5508791 72.6993041,12.7081319 C72.9533034,12.896044 73.2674171,13.23 73.4537053,13.2352747 C73.8946534,13.2474725 73.9570798,13.5237363 74.0204971,13.7769231 C74.0634358,13.9473626 73.9861461,14.2173626 73.8619539,14.3456044 C73.635039,14.5803297 73.2736927,14.696044 73.0761744,14.9459341 C72.7022768,15.4193407 72.2755315,15.7935165 71.7255849,16.0378022 C71.6710857,16.0618681 71.6595252,16.1815385 71.6228621,16.2689011 C71.4560615,16.2613187 71.1838958,16.1053846 71.3427692,16.5695604 C71.4458223,16.8702198 71.3434298,17.2387912 71.3454116,17.577033 C71.3460722,17.7379121 71.3942957,17.8994505 71.3896716,18.06 C71.3625871,18.933956 71.3163453,19.8072527 71.2981789,20.6812088 C71.2919033,20.9716484 71.3493752,21.2634066 71.3784414,21.5548352 C71.3807535,21.5798901 71.3982593,21.6075824 71.3919836,21.6296703 C71.1515265,22.4881319 71.2578826,23.3498901 71.3315391,24.2182418 C71.3672113,24.6382418 71.2674612,25.0691209 71.2311284,25.4953846 C71.2228709,25.5949451 71.2370738,25.6981319 71.2179165,25.7950549 C71.1924835,25.921978 71.14426,26.0442857 71.1056151,26.1689011 C70.9777896,26.1046154 70.7700321,26.0673626 70.7370022,25.9707692 C70.6356007,25.6743956 70.5943134,25.3562637 70.5431172,25.0443956 C70.4955542,24.7569231 70.4592214,24.4678022 70.4291643,24.178022 C70.3997677,23.8945055 70.384574,23.6093407 70.3594713,23.2763736 C70.4972057,23.3485714 70.5791197,23.3917582 70.6742456,23.4415385 C70.7165237,22.7179121 70.5857256,22.0315385 70.7257721,21.3234066 C70.848643,20.700989 70.7502142,20.0334066 70.7280842,19.3865934 C70.7251115,19.2979121 70.598277,19.2131868 70.6382431,19.1291209 C70.6851454,18.5584615 70.7320478,17.9874725 70.7815925,17.3828571 C70.4813514,17.1164835 70.4813514,17.1164835 70.6917514,16.8210989 C70.6649972,16.7943956 70.6382431,16.7676923 70.6114889,16.7406593 C70.3915103,16.9598901 70.1715316,17.1787912 69.9366896,17.4125275 C69.9096051,17.3897802 69.850812,17.3406593 69.8465182,17.337033 C68.4638897,18.238022 67.1076851,19.1218681 65.8026768,19.9724176 C65.787483,20.1379121 65.7772438,20.2483516 65.7673349,20.3584615 C65.6883936,20.3287912 65.6097826,20.2991209 65.5163082,20.2635165 C65.5040872,20.3324176 65.4492576,20.4375824 65.4809663,20.4959341 C65.7068903,20.9103297 65.4756815,21.3412088 65.5433926,21.7621978 C65.6190309,22.2323077 65.6510699,22.7096703 65.7181204,23.3330769 C65.260327,23.1781319 64.8851082,23.0195604 64.4940351,22.9262637 C63.9952848,22.8075824 63.4932314,22.6697802 62.9822601,22.9595604 C62.807202,23.0587912 62.5489088,23.0020879 62.3338846,23.0442857 C62.0752611,23.0950549 61.8040862,23.1392308 61.5728775,23.2552747 C61.4146646,23.3347253 61.3155751,23.5315385 61.1266445,23.7491209 C61.012031,23.5826374 60.7983281,23.4102198 60.7989887,23.2387912 C60.7999796,23.0218681 60.7636468,22.7383516 61.0899814,22.5857143 C61.4087192,22.4367033 61.667673,22.1637363 61.9622991,21.9586813 C62.0468554,21.9 62.163781,21.8874725 62.2017653,21.8749451 C62.2932579,21.7163736 62.3375179,21.5676923 62.4369377,21.483956 C62.5984535,21.3478022 62.810505,21.2723077 62.9753238,21.1391209 C63.2141294,20.9456044 63.3822512,20.7194505 62.9459273,20.4207692 C63.4968647,20.4273626 63.2038902,20.1220879 63.2270111,19.9394505 C63.30331,19.3443956 63.375315,18.7483516 63.4294839,18.1513187 C63.4459988,17.9696703 63.3822512,17.7817582 63.3862148,17.5974725 C63.3891875,17.4695604 63.4450079,17.3426374 63.481671,17.1975824 C63.3650757,17.1504396 63.233617,17.097033 63.1292428,17.0548352 C63.2296534,16.2751648 63.3287429,15.5053846 63.4436867,14.611978 C63.7918211,14.793956 64.1171648,14.9637363 64.4117909,15.1173626 C64.5026229,14.850989 64.5610857,14.6798901 64.6195485,14.5091209 C64.7913035,14.5872527 64.9931158,14.6314286 65.1291986,14.7504396 C65.5754316,15.1401099 65.5942586,15.6669231 65.555944,16.2118681 C65.5255565,16.6483516 65.5212627,17.0868132 65.5196112,17.5246154 C65.5186203,17.7679121 65.5599076,18.0115385 65.5582561,18.2545055 C65.5566046,18.5142857 65.5268777,18.7734066 65.5034266,19.1241758 C65.7273688,19.0041758 65.941402,18.9454945 66.0751728,18.8083516 C66.7578993,18.1074725 67.6331896,17.4926374 68.4889924,17.0732967 C68.794188,16.9236264 69.0369572,17.1428571 69.3480981,16.1538462 L68.8645415,16.1538462 C68.8618991,16.1538462 68.8592567,16.3041758 68.8566143,16.258022 C69.0336542,16.258022 69.210694,16.3757143 69.3877339,16.38 C69.8722814,16.3915385 70.2755756,16.2059341 70.4522851,15.7654945 C70.7181752,15.1008791 70.7307266,14.4313187 70.7095875,13.7304396 C70.698027,13.3420879 70.6484823,12.9692308 70.6494732,12.5815385 C70.6498035,12.4404396 70.7462506,12.3145055 70.8057043,12.1556044 L70.8057043,12.1556044 Z M64.8533996,17.0947253 C64.7255742,17.2579121 64.5264043,17.4042857 64.4834656,17.5872527 C64.3705036,18.0665934 64.3278951,18.5620879 64.2529174,19.0506593 C64.2146028,19.3005495 64.166049,19.5491209 64.1178254,19.8243956 C64.3467221,20.0010989 64.607988,19.9645055 64.8738781,19.6783516 C65.0763509,19.4601099 64.9614071,18.5897802 64.6968382,18.3369231 C65.0462938,18.0243956 65.0958385,17.5552747 64.8296181,17.0821978 C64.9141745,17.0241758 65.0746994,16.9589011 65.069745,16.9097802 C65.0535603,16.7465934 65.0182184,16.5451648 64.9098806,16.4465934 C64.846133,16.3885714 64.6297877,16.498022 64.4012213,16.5507692 C64.6030335,16.7934066 64.7282166,16.9440659 64.8533996,17.0947253 L64.8533996,17.0947253 Z M70.353526,11.6983516 L70.353526,15.1661538 C71.0141225,15.0972527 71.2542493,15.0883516 71.3810838,14.9950549 C71.8801645,14.6281319 72.1196307,14.2348352 72.6223446,13.8385714 C71.9630693,13.142967 71.6747189,12.4671429 70.353526,11.6983516 L70.353526,11.6983516 Z M64.6281362,20.9218681 C64.3781004,21.0771429 64.1237708,21.1523077 63.9949545,21.5271429 C63.9242706,21.7321978 63.8159328,21.9784615 63.9176647,22.0902198 C64.0319479,22.2158242 64.3054348,22.2187912 64.5125318,22.2326374 C64.7044351,22.2451648 64.9006323,22.2013187 65.1315107,22.1785714 C65.0419999,21.7595604 65.2008734,21.2086813 64.6281362,20.9218681 L64.6281362,20.9218681 Z" id="Fill-6" fill="#EDEDED" sketch:type="MSShapeGroup"></path>
                <path d="M69.9380108,20.1672527 C69.8250488,20.1975824 69.7117565,20.2279121 69.5707191,20.2661538 C69.792019,20.5157143 70.0912692,20.7243956 70.1748346,20.9986813 C70.2207461,21.1483516 69.9010174,21.4091209 69.6701389,21.5808791 C69.7048202,21.4658242 69.7391712,21.3507692 69.7738526,21.2357143 C69.7434651,21.2657143 69.713408,21.2953846 69.6830205,21.3253846 C69.3256378,21.0187912 68.9679248,20.7121978 68.5639701,20.3663736 C68.6343236,20.2176923 68.7185497,20.0393407 68.8232542,19.8164835 C69.17304,20.1524176 69.515229,20.2931868 69.9485803,20.0317582 C69.944947,20.0769231 69.9416441,20.1220879 69.9380108,20.1672527" id="Fill-7" fill="#EDEDED" sketch:type="MSShapeGroup"></path>
                <path d="M82.6967713,16.8962637 C82.5613491,16.886044 82.4262571,16.8761538 82.3585459,16.8712088 C82.2895136,17.6686813 82.2211419,18.4598901 82.1517792,19.2596703 C82.3248555,19.1617582 82.530301,19.0374725 82.7430131,18.9273626 C82.9114652,18.8403297 83.0904869,18.7734066 83.2622419,18.691978 C83.5013779,18.5792308 83.7355593,18.4552747 83.976677,18.3468132 C84.3492535,18.179011 84.7482537,18.057033 85.0930851,17.8457143 C85.3332119,17.6983516 85.5185092,17.7174725 85.665492,17.8885714 C85.7952992,18.0392308 85.9294003,18.2653846 85.9092521,18.4410989 C85.8917463,18.5957143 85.6727585,18.7364835 85.5264364,18.8653846 C85.147254,19.199011 84.7472628,19.5102198 84.3809621,19.857033 C84.2395944,19.9908791 84.0949238,20.1896703 84.0784089,20.3706593 C84.0493427,20.6854945 83.7801496,20.7923077 83.6338275,20.9943956 C83.4577785,21.238022 83.5017082,21.3161538 83.7269716,21.4783516 C84.1286142,21.7678022 84.4896302,22.1132967 84.8698035,22.4330769 C84.9530387,22.5032967 85.0359435,22.5936264 85.1347027,22.6236264 C85.9019855,22.8567033 86.3901663,23.5312088 87.1964243,23.8275824 C87.240354,23.8002198 87.3625643,23.7230769 87.5022805,23.6353846 C87.4520752,23.7445055 87.4045122,23.8473626 87.327883,24.0138462 C87.795255,24.0138462 88.2114308,24.0296703 88.6256248,24.0082418 C88.8941573,23.9940659 89.1623595,23.9367033 89.4259375,23.8773626 C89.6990941,23.816044 90.0743129,23.9792308 90.2170018,24.2554945 C89.3294904,24.6161538 88.4006917,24.7717582 87.4715628,24.5878022 C86.9777669,24.4902198 86.5242674,24.1678022 86.0658134,23.9221978 C85.7199912,23.7369231 85.3910141,23.5183516 85.0633583,23.3017582 C84.9708748,23.2407692 84.9173664,23.1234066 84.8301677,23.0512088 C84.6465219,22.8989011 84.4466914,22.7663736 84.2643668,22.6127473 C84.0718029,22.4512088 83.8795694,22.2857143 83.7097961,22.1014286 C83.4696692,21.840989 82.847057,21.9013187 82.6789352,22.1986813 C82.5190709,22.4812088 82.3004135,22.7320879 82.1544216,23.0205495 C81.9889422,23.3482418 81.8749893,23.701978 81.7111614,24.1140659 C81.2447803,24.1991209 80.660813,24.0771429 80.3318359,23.7412088 C80.2770064,23.6851648 80.3272117,23.5391209 80.2978152,23.4438462 C80.2449675,23.2720879 80.1686686,23.1072527 80.1022786,22.9394505 L80.0917091,22.9457143 C80.2241587,23.069011 80.3602416,23.189011 80.4883973,23.3165934 C80.5954139,23.4237363 80.6935125,23.5401099 80.826953,23.6868132 C80.9567602,23.6017582 81.0796311,23.521978 81.2025021,23.4415385 C81.1631966,23.4332967 81.1235608,23.4247253 81.0842553,23.4164835 C81.0842553,22.8916484 81.0703828,22.3664835 81.0911916,21.8426374 C81.099449,21.6296703 81.1618754,21.4117582 81.2368531,21.21 C81.3986992,20.7751648 81.2685617,20.523956 80.8404952,20.3416484 C80.525721,20.2074725 80.2489311,19.9862637 79.9443961,19.8247253 C79.8007163,19.7489011 79.630943,19.7215385 79.4179007,19.6549451 C79.4720696,20.1161538 79.5146781,20.4781319 79.5572865,20.8401099 C79.5146781,20.8516484 79.4720696,20.8631868 79.4294611,20.8747253 C79.267615,20.3221978 79.1060991,19.7696703 78.9303805,19.1683516 C79.1216232,18.8828571 79.3323534,19.1221978 79.6164099,19.1878022 C79.998565,19.2758242 79.8165707,19.3605495 80.1435659,19.5748352 C80.3575992,19.7152747 80.2624733,19.8593407 80.2624733,20.0175824 L80.2624733,19.112967 C80.2624733,18.7717582 81.1394151,18.4823077 81.1506453,18.1856044 C81.1797115,17.4197802 81.3907721,16.650989 81.3782208,15.8835165 C81.3739269,15.6187912 81.5479941,15.3540659 81.5546,15.089011 C81.5625272,14.7810989 81.6242929,14.4728571 81.6242929,14.0851648 C81.3947357,14.2150549 81.2130716,14.337033 81.1067156,14.397033 C81.0426377,14.6030769 81.0548588,14.7801099 80.9874779,14.8084615 C80.5528054,14.9904396 80.2535552,15.298022 80.086094,15.7654945 C80.0642943,15.8254945 80.0164011,15.8821978 79.9645443,15.9230769 C79.5117054,16.2804396 79.3475472,16.7802198 79.197922,17.3136264 C79.1239352,17.5767033 78.8785236,17.7916484 78.7014838,18.0402198 C78.7952885,18.1120879 78.8705965,18.1691209 78.9052778,18.1951648 C78.3001714,18.3903297 78.7094109,18.9062637 78.6063579,19.2451648 C78.4897626,19.6285714 78.4299786,20.0343956 78.3900125,20.4349451 C78.3622675,20.7131868 78.4230424,20.999011 78.4217212,21.2815385 C78.4197394,21.8159341 78.4002518,22.3503297 78.3903428,22.8847253 C78.3701946,23.9551648 78.304135,25.0275824 78.3550009,26.0947253 C78.3781218,26.580989 78.4022336,27.057033 78.3186681,27.5327473 C78.2833262,27.7341758 78.1782914,27.9234066 78.1052955,28.1179121 C78.0663203,28.1067033 78.0270148,28.0951648 77.9880396,28.083956 C77.8806927,27.8620879 77.7730154,27.6402198 77.6646776,27.4173626 C77.5738456,27.4496703 77.4968861,27.4767033 77.4826833,27.481978 C77.3763272,27.2713187 77.2633652,27.088022 77.1887178,26.8905495 C77.017293,26.4389011 76.8333169,25.9882418 76.7157307,25.5217582 C76.6414136,25.228022 76.6936008,24.9046154 76.6599103,24.5976923 C76.6371198,24.392967 76.5403424,24.1961538 76.5182124,23.9914286 C76.4997157,23.8226374 76.5013672,23.6301099 76.565445,23.4781319 C76.7821207,22.9668132 76.9816208,22.4634066 76.8366199,21.8901099 C76.8204353,21.8261538 76.9115976,21.7354945 76.951894,21.6586813 C76.8570984,21.543956 76.7613119,21.4289011 76.6658557,21.3135165 C76.7051612,21.3240659 76.7444667,21.3342857 76.7834419,21.3448352 C76.8670073,21.1826374 76.9525546,21.0210989 77.033808,20.8575824 C77.1395034,20.6452747 77.2316566,20.4257143 77.3485822,20.22 C77.4509746,20.0396703 77.6138117,19.8797802 77.4001087,19.6697802 C77.381612,19.6516484 77.4093571,19.556044 77.4417263,19.5210989 C77.8354418,19.0994505 78.2000911,18.0184615 78.1782914,17.4883516 C78.172346,17.3413187 78.0425388,17.1995604 78.0088484,17.132967 C78.0722656,16.8181319 78.1617765,16.5520879 78.1581432,16.287033 C78.156822,16.2006593 77.9196678,16.0737363 77.7759881,16.0493407 C77.6848258,16.0341758 77.5318977,16.1512088 77.4681501,16.2487912 C77.2072145,16.6503297 76.697234,16.5586813 76.3712297,16.8240659 C76.3154093,16.8695604 76.2080623,16.8550549 76.1565358,16.9028571 C75.9600084,17.0835165 75.8050985,17.0901099 75.6402797,16.8563736 C75.5567142,16.738022 75.4219525,16.6552747 75.2802546,16.5303297 C75.9547236,16.1924176 76.5964931,15.8706593 77.2382626,15.5492308 C77.4889589,15.5103297 78.0666506,15.2350549 78.1776308,14.9518681 C78.2268452,14.8269231 78.1888609,14.6650549 78.1802732,14.5206593 C78.1521978,14.0574725 78.1095893,13.5946154 78.0943956,13.1307692 C78.0894411,12.9814286 78.1829155,12.8284615 78.1759793,12.6797802 C78.1697036,12.5512088 78.084817,12.4265934 78.0412176,12.3161538 C77.9936547,12.1572527 77.9946455,11.9845055 77.9090983,11.9083516 C77.6904409,11.7141758 77.7971272,11.4606593 77.7317281,11.2427473 C77.8314782,11.2368132 77.9500553,11.1936264 78.0263542,11.2325275 C78.1773005,11.3093407 78.3044653,11.431978 78.4639993,11.5523077 C78.5492163,11.8289011 78.6823265,12.1536264 78.7421105,12.4908791 C78.787031,12.7424176 78.7553224,13.0127473 78.7246047,13.2708791 C78.6879416,13.5761538 78.9667133,13.8352747 79.279836,13.7996703 C79.5483685,13.7693407 79.8235069,13.7934066 80.1131785,13.8616484 C80.04844,13.8916484 79.9837016,13.9216484 79.9189631,13.9516484 C79.923257,13.9717582 79.9278812,13.9915385 79.932175,14.0116484 C80.0348978,14.0053846 80.1412538,14.0136264 80.2396827,13.9898901 C80.4765066,13.9331868 80.8421467,14.0897802 80.8540374,13.6321978 C80.8550283,13.5926374 80.9564299,13.5468132 81.0181957,13.5187912 C81.4224807,13.3338462 81.5754088,12.8212088 82.0530201,12.7282418 C82.0843984,12.721978 82.0982709,12.6372527 82.1243645,12.5914286 C82.4090816,12.0936264 82.6947896,11.6169231 83.302208,11.4161538 C83.5278017,11.3413187 83.6929509,11.0838462 83.9076447,10.8896703 C84.1163932,11.1125275 84.2765878,11.2832967 84.4480126,11.4659341 C84.5355417,11.3930769 84.614483,11.3271429 84.7221602,11.2374725 C84.73306,11.3162637 84.7555203,11.372967 84.7406569,11.3858242 C84.3512353,11.7217582 84.3568503,12.1968132 84.2524761,12.6471429 C84.0724635,13.4264835 83.8145006,14.1873626 83.6103763,14.9617582 C83.5307744,15.2643956 83.5684284,15.6089011 83.4448969,15.8868132 C83.2880052,16.2398901 83.0211242,16.5445055 82.8018062,16.8702198 C82.7833095,16.4251648 82.696441,16.0021978 82.4113937,15.6056044 C82.2462445,16.2382418 82.2594565,16.3562637 82.4817472,16.6051648 C82.5616794,16.6948352 82.6257572,16.7986813 82.6967713,16.8962637 L82.6967713,16.8962637 Z M76.8025992,24.2317582 C77.3502337,24.4664835 76.7616422,25.2425275 77.5385037,25.408022 C77.3079555,25.4498901 77.205563,25.4683516 77.0067235,25.5046154 C77.3911907,25.8431868 77.1084554,26.4540659 77.695065,26.666044 C77.7462613,26.0732967 77.845681,25.5065934 77.8311479,24.9431868 C77.8133118,24.2505495 77.8770594,23.5595604 77.8470022,22.8728571 C77.8327994,22.5445055 78.2109909,22.0921978 77.6250418,21.8920879 C77.7257828,21.8083516 77.8509658,21.7556044 77.8602142,21.6876923 C77.9170255,21.2686813 77.9474129,20.8463736 77.9867184,20.4250549 C77.9493947,20.4095604 77.912071,20.3940659 77.8747473,20.3789011 C77.7436189,20.6749451 77.6124905,20.970989 77.4754167,21.2808791 C77.4906104,21.2894505 77.5546883,21.3253846 77.6488233,21.3784615 C77.5186858,21.4345055 77.4262023,21.4743956 77.3730242,21.4971429 C77.3730242,21.6857143 77.393833,21.8337363 77.3690607,21.9738462 C77.2970557,22.3806593 77.0410745,22.8448352 77.1616334,23.1758242 C77.3502337,23.6927473 77.0258808,23.8928571 76.8025992,24.2317582 L76.8025992,24.2317582 Z M82.734095,15.7048352 C82.7667946,15.7104396 82.7994941,15.716044 82.8321936,15.7216484 C82.9117955,15.5558242 83.041933,15.3959341 83.0627418,15.2228571 C83.1410225,14.5747253 83.1823098,13.921978 83.2420937,13.2715385 C83.2480391,13.2085714 83.2837113,13.1472527 83.3101352,13.0869231 C83.3933703,12.899011 83.4868447,12.7147253 83.5532347,12.5212088 C83.5621527,12.4954945 83.4049308,12.3679121 83.3781766,12.3827473 C83.2358181,12.4625275 83.0997352,12.5617582 82.9811581,12.6745055 C82.6571356,12.9820879 82.3426916,13.2998901 82.0246144,13.6137363 C82.3915758,13.8415385 82.2267569,14.008022 82.1405491,14.1567033 C82.28555,14.3901099 82.4629202,14.5997802 82.5530916,14.8417582 C82.6544932,15.1140659 82.6772837,15.4157143 82.734095,15.7048352 L82.734095,15.7048352 Z M82.8285603,20.8176923 C83.0528329,20.4962637 83.2916385,20.1626374 83.5188837,19.8214286 C83.5687587,19.7465934 83.5961735,19.6447253 83.5961735,19.5550549 C83.5965038,19.5191209 83.4825509,19.4403297 83.4435757,19.4528571 C83.120544,19.5557143 82.7724096,19.6282418 82.4956197,19.8082418 C82.3377372,19.9110989 82.2990923,20.1969231 82.2128844,20.3871429 C82.446075,20.5503297 82.6584567,20.6986813 82.8285603,20.8176923 L82.8285603,20.8176923 Z M79.1625801,15.4371429 C79.182398,15.478022 79.2025462,15.5189011 79.2226944,15.5597802 C79.4710787,15.4025275 79.7201236,15.2452747 79.9922893,15.0731868 C79.5572865,14.8892308 79.3964313,15.2416484 79.1625801,15.4371429 L79.1625801,15.4371429 Z M82.198021,21.1368132 C82.107189,21.4654945 82.0325416,21.7335165 81.9582245,22.0018681 C81.9763909,22.0137363 81.994227,22.0259341 82.0120631,22.0381319 C82.166973,21.8324176 82.3215525,21.6267033 82.4900046,21.4021978 C82.4094119,21.329011 82.3235343,21.2505495 82.198021,21.1368132 L82.198021,21.1368132 Z M78.6743993,15.8462637 C78.7137048,16.112967 78.7421105,16.3041758 78.7701858,16.4950549 C78.809161,16.4934066 78.8478059,16.4914286 78.8867811,16.4894505 C78.9538316,16.3216484 79.0205519,16.1538462 79.0968508,15.9632967 C78.9733192,15.929011 78.8699359,15.9006593 78.6743993,15.8462637 L78.6743993,15.8462637 Z" id="Fill-8" fill="#EDEDED" sketch:type="MSShapeGroup"></path>
                <path id="Fill-9" fill="#EDEDED" sketch:type="MSShapeGroup" d="M80.1022786,22.9394505 C79.8195433,22.5662637 79.8020375,22.4146154 80.0183829,22.1106593 C80.2846033,22.3724176 80.212268,22.6559341 80.0927,22.9450549 C80.0917091,22.9457143 80.1022786,22.9394505 80.1022786,22.9394505"></path>
                <g id="Group-13">
                    <mask id="mask-2" sketch:name="Clip 11" fill="white">
                        <use xlink:href="#path-1"></use>
                    </mask>
                    <g id="Clip-11"></g>
                    <path d="M20.4992999,27.2617582 C20.4771699,24.3431868 20.761887,21.4025275 21.8013356,18.6843956 C22.9805003,15.600989 25.2407312,12.8142857 28.3088716,11.5862637 C23.5588526,8.8856044 17.4939162,8.61758242 12.528873,10.9061538 C7.47861284,13.2342857 3.70792809,18.1420879 2.7652569,23.613956 C3.86283796,22.2494505 5.74685915,21.7991209 7.49810044,21.7186813 C12.2283016,21.5014286 17.0149837,23.4692308 20.2195373,26.9485714 C20.3140026,27.0510989 20.407477,27.1556044 20.4992999,27.2617582" id="Fill-10" fill="#518B26" sketch:type="MSShapeGroup" mask="url(#mask-2)"></path>
                    <path d="M20.376429,27.3491209 C20.8870701,24.4753846 21.7038976,21.6359341 23.2219483,19.1521978 C24.9441234,16.3348352 27.6750293,14.0053846 30.9159156,13.3559341 C26.7383034,9.83703297 20.8236528,8.47087912 15.5243478,9.81824176 C10.1335501,11.189011 5.5301835,15.3293407 3.60454474,20.5384615 C4.93300427,19.3961538 6.86756109,19.2959341 8.60426926,19.5352747 C13.2948346,20.1817582 17.6422201,22.9865934 20.1584321,26.9904396 C20.2324189,27.1084615 20.3054148,27.2281319 20.376429,27.3491209" id="Fill-12" fill="#80B730" sketch:type="MSShapeGroup" mask="url(#mask-2)"></path>
                </g>
                <path d="M94.8359171,21.47176 L92.5125128,17.8704834 L93.2184703,17.8704834 L95.1308107,20.8730366 L97.087832,17.8704834 L97.7491086,17.8704834 L95.4257043,21.47176 L95.4257043,24.1972919 L94.8359171,24.1972919 L94.8359171,21.47176 Z M100.081449,20.8730366 L97.9188958,17.8704834 L98.6159171,17.8704834 L100.438896,20.4441005 L102.235066,17.8704834 L102.941023,17.8704834 L100.796343,20.8730366 L103.146555,24.1972919 L102.413789,24.1972919 L100.412087,21.3377175 L98.4103852,24.1972919 L97.7044277,24.1972919 L100.081449,20.8730366 Z M105.425279,18.4066536 L103.262726,18.4066536 L103.262726,17.8704834 L108.177619,17.8704834 L108.177619,18.4066536 L106.015066,18.4066536 L106.015066,24.1972919 L105.425279,24.1972919 L105.425279,18.4066536 Z M109.151662,17.8704834 L109.741449,17.8704834 L109.741449,24.1972919 L109.151662,24.1972919 L109.151662,17.8704834 Z M111.412513,17.8704834 L112.297194,17.8704834 L114.602726,23.1785685 L116.908258,17.8704834 L117.748258,17.8704834 L117.748258,24.1972919 L117.15847,24.1972919 L117.15847,18.6211217 L117.140598,18.6211217 L114.727832,24.1972919 L114.468683,24.1972919 L112.020172,18.6211217 L112.0023,18.6211217 L112.0023,24.1972919 L111.412513,24.1972919 L111.412513,17.8704834 Z M119.419321,17.8704834 L123.288683,17.8704834 L123.288683,18.4066536 L120.009109,18.4066536 L120.009109,20.6585685 L123.083151,20.6585685 L123.083151,21.1947388 L120.009109,21.1947388 L120.009109,23.6611217 L123.431662,23.6611217 L123.431662,24.1972919 L119.419321,24.1972919 L119.419321,17.8704834 Z M124.888258,23.0266536 C125.043152,23.2947401 125.244214,23.4943126 125.491449,23.6253771 C125.738684,23.7564415 126.020171,23.8219728 126.335917,23.8219728 C126.532514,23.8219728 126.717193,23.7921859 126.88996,23.7326111 C127.062726,23.6730363 127.21315,23.5896329 127.341236,23.4823983 C127.469322,23.3751637 127.570598,23.2455906 127.645066,23.0936749 C127.719534,22.9417593 127.756768,22.7704844 127.756768,22.5798451 C127.756768,22.3594185 127.710598,22.1777182 127.618258,22.0347388 C127.525917,21.8917593 127.402301,21.7741009 127.247406,21.68176 C127.092512,21.5894191 126.918258,21.5104838 126.72464,21.4449515 C126.531022,21.3794193 126.33145,21.313888 126.125917,21.2483558 C125.920384,21.1828235 125.720812,21.1083562 125.527194,21.0249515 C125.333576,20.9415468 125.159322,20.8328245 125.004428,20.6987813 C124.849533,20.5647381 124.725918,20.3964419 124.633577,20.1938877 C124.541236,19.9913335 124.495066,19.7411232 124.495066,19.4432494 C124.495066,19.163248 124.550172,18.9145271 124.660385,18.6970792 C124.770598,18.4796313 124.919533,18.297931 125.107194,18.1519728 C125.294854,18.0060146 125.510809,17.895803 125.755066,17.8213345 C125.999323,17.746866 126.25549,17.7096324 126.523577,17.7096324 C126.86911,17.7096324 127.18932,17.7706956 127.484215,17.8928239 C127.77911,18.0149521 128.033788,18.2189926 128.248258,18.5049515 L127.738896,18.8713345 C127.589959,18.6628228 127.415705,18.5064414 127.21613,18.4021856 C127.016554,18.2979297 126.779748,18.2458026 126.505704,18.2458026 C126.315065,18.2458026 126.133365,18.2711215 125.960598,18.32176 C125.787831,18.3723986 125.637407,18.4468659 125.509321,18.5451643 C125.381236,18.6434626 125.278471,18.7670784 125.201023,18.9160153 C125.123576,19.0649523 125.084853,19.2406952 125.084853,19.4432494 C125.084853,19.7589957 125.165278,20.0017592 125.32613,20.1715473 C125.486982,20.3413353 125.688044,20.4753766 125.929321,20.5736749 C126.170599,20.6719733 126.432724,20.7583554 126.715704,20.8328239 C126.998684,20.9072923 127.260809,21.0070786 127.502087,21.1321856 C127.743365,21.2572926 127.944427,21.4315461 128.105279,21.6549515 C128.266131,21.8783569 128.346555,22.1866517 128.346555,22.5798451 C128.346555,22.865804 128.292939,23.118993 128.185704,23.3394196 C128.07847,23.5598462 127.934003,23.7460146 127.7523,23.8979302 C127.570597,24.0498459 127.360599,24.1645256 127.1223,24.2419728 C126.884001,24.31942 126.636769,24.358143 126.380598,24.358143 C125.963575,24.358143 125.579323,24.285165 125.227832,24.1392068 C124.876341,23.9932487 124.575493,23.7475064 124.325279,23.4019728 L124.888258,23.0266536 Z" id="YXTIMES" fill="#80B730" sketch:type="MSShapeGroup"></path>
            </g>
        </g>
    </g>
</svg>