<?xml version="1.0" encoding="UTF-8" standalone="no"?>
<svg width="115px" height="40px" viewBox="0 0 115 40" version="1.1" xmlns="http://www.w3.org/2000/svg" xmlns:xlink="http://www.w3.org/1999/xlink" xmlns:sketch="http://www.bohemiancoding.com/sketch/ns">
    <!-- Generator: Sketch 3.4 (15575) - http://www.bohemiancoding.com/sketch -->
    <title>logo</title>
    <desc>Created with Sketch.</desc>
    <defs>
        <path id="path-1" d="M26.4092673,13.1288685 C25.6305695,19.8632547 23.5653274,15.5195472 23.5653274,15.5195472 C23.5653274,15.5195472 26.6939121,18.356074 29.3566574,13.9638088 L40.882263,0.0145042498 C32.8871304,19.2357883 35.7053645,31.6312462 35.7053645,31.6312462 C35.9555259,22.3775349 41.829616,14.6688415 41.829616,14.6688415 L67.1711519,26.1347662 L41.5129957,57.062241 L0.181821554,46.5189127 L18.5514413,12.9800423 L26.4092673,13.1288685"></path>
    </defs>
    <g id="Page-1" stroke="none" stroke-width="1" fill="none" fill-rule="evenodd" sketch:type="MSPage">
        <g id="登录" sketch:type="MSArtboardGroup" transform="translate(-551.000000, -110.000000)">
            <g id="logo" sketch:type="MSLayerGroup" transform="translate(546.000000, 93.000000)">
                <g id="Imported-Layers-Copy-3">
                    <mask id="mask-2" sketch:name="Clip 2" fill="white">
                        <use xlink:href="#path-1"></use>
                    </mask>
                    <g id="Clip-2"></g>
                    <path d="M38.9116936,52.1484535 C38.8696865,46.5655785 39.4101354,40.9404521 41.3832128,35.7409939 C43.6214988,29.8428092 47.9118605,24.5115515 53.735793,22.1631242 C44.7193248,16.9970889 33.2068855,16.4843952 23.7822593,20.8621561 C14.1958746,25.3155914 7.03837507,34.7036247 5.24900019,45.1706481 C7.33242441,42.5605137 10.9086663,41.6990874 14.2328659,41.5452163 C23.2117158,41.129638 32.2977778,44.8938061 38.3806492,51.5493649 C38.5599629,51.7454876 38.7373957,51.945394 38.9116936,52.1484535" id="Fill-1" fill="#518B26" sketch:type="MSShapeGroup" mask="url(#mask-2)"></path>
                    <path d="M38.6784604,52.3155676 C39.6477574,46.818457 41.1982564,41.3869308 44.0798145,36.635843 C47.3488407,31.2465683 52.5326359,26.7906105 58.6844741,25.54829 C50.7545465,18.8170569 39.527379,16.2037695 29.4682582,18.7811116 C19.2354665,21.4032277 10.4973734,29.3231787 6.84213318,39.2875983 C9.36381005,37.1025015 13.0359785,36.9107932 16.3325914,37.368623 C25.2362048,38.6052679 33.4883955,43.9705791 38.2646596,51.6294536 C38.4051011,51.8552154 38.5436617,52.0841303 38.6784604,52.3155676" id="Fill-3" fill="#80B730" sketch:type="MSShapeGroup" mask="url(#mask-2)"></path>
                </g>
                <text id="Imported-Layers-Copy" sketch:type="MSTextLayer" font-family="Avenir" font-size="6.85386313" font-weight="420" letter-spacing="-1" fill="#80B730">
                    <tspan x="64.3071786" y="55.3253722">YXTIMES</tspan>
                </text>
                <g id="Imported-Layers-Copy-2" transform="translate(17.829716, 17.517947)" fill="#292929" sketch:type="MSShapeGroup">
                    <path d="M32.9168776,26.1762433 C31.7161844,27.3843776 30.4956203,28.2675238 29.3220241,29.1681879 C28.6138921,29.7112442 27.9780185,30.5412325 27.2945749,31.1495281 C27.2614565,31.1247614 27.5011133,31.4032363 27.8738461,31.6859398 C26.9609821,32.0616695 26.1559035,32.3703478 25.4242876,32.767824 C24.9046296,33.0499234 24.9853181,33.8932011 24.0814864,34.044822 C22.8091371,34.2586618 21.8426815,34.1197263 21.041818,33.0982488 C20.6100743,33.3543732 20.1680939,33.6225791 19.3539831,34.1052287 C22.5616522,34.9563593 25.4381371,35.7229205 28.3730309,36.5015631 C27.6775442,37.7562106 26.5647654,37.2355047 25.7325899,37.2119461 C24.6643705,37.1811387 23.5973554,36.7854747 22.549007,36.4804208 C21.4771746,36.168118 20.392697,35.8552113 19.3792735,35.3967243 C18.4218502,34.9642122 16.8339727,35.5320353 16.2233896,36.3922269 C15.5387416,37.3557141 14.6608025,38.2177179 13.7316804,38.9516595 C13.3667757,39.2397995 12.6297404,39.0181069 12.7838915,38.2080528 C13.0488389,36.8168862 13.4209694,35.4450497 13.6407553,34.0478423 C13.8972725,32.4156529 14.0315526,30.7641333 14.2350803,29.1222788 C14.292887,28.6595633 14.4042853,28.2028886 14.4982212,27.7444016 C14.5716838,27.3861898 14.6565874,27.0297902 14.7366738,26.6721824 C14.6445444,26.6335221 14.5524149,26.5948618 14.4602855,26.5562015 C14.2085856,26.9603224 13.9568856,27.3650474 13.8105624,27.5994255 C13.4360233,27.4248501 13.1265166,27.280478 12.77787,27.117984 C13.3577434,26.3961237 13.9653158,25.6398316 14.5427805,24.9203877 C14.9275563,25.1269786 15.213579,25.2810157 15.4996016,25.4344488 C15.5345265,25.1541616 15.69771,24.7313146 15.5778815,24.6213744 C15.2954718,24.3634377 14.8775776,24.2553097 14.3982638,24.0324089 C15.4923758,23.0363022 16.9604248,24.0100585 18.429076,23.5406983 C18.5446894,22.3531023 18.6735502,21.0320074 18.8024109,19.7115166 C18.255656,19.732659 18.5735928,17.8389084 17.4421473,19.0953681 C17.3470071,19.2010799 17.0248552,19.1014088 16.8080801,19.0971803 C16.8279512,18.8863609 16.7990478,18.6550032 16.8773277,18.4689505 C17.0302746,18.1028858 17.2422325,17.7615878 17.4674377,17.339949 C18.9686051,17.5127122 19.8062,18.1487949 19.9230177,19.7954819 C20.0115342,21.0495253 19.6719199,22.3295436 19.5755754,23.6017091 C19.5141558,24.4129713 19.6400058,25.2441677 19.5225859,26.0433485 C19.2949721,27.586136 18.9541535,29.1126137 18.6211629,30.8535352 C20.2186748,29.8791749 21.2507651,30.7091632 22.0323597,31.4618309 C22.1600161,32.1414064 22.246124,32.6035178 22.332834,33.0656291 C22.8567072,32.8964903 23.4763226,32.848769 23.8809694,32.5280094 C24.3958103,32.120264 24.6770157,31.4032363 25.5356859,31.6086192 C25.614568,31.6273453 25.7632998,31.4189421 25.8572356,31.2981287 C26.4852812,30.4892827 27.1073053,29.6750002 27.7985769,28.7755442 C27.8094157,28.7954784 27.6871786,28.5725777 27.6745334,28.5496231 C28.4657625,27.6531875 29.6243049,27.711782 30.3456842,26.6274814 C31.5283127,24.8509199 33.0330931,23.286386 34.453572,21.6789633 C34.5980888,21.5158652 35.1038973,21.7097707 35.4320707,21.6644657 C35.779513,21.6167444 36.2305256,21.5805004 36.4220102,21.3551833 C36.5882045,21.1600696 36.4966772,20.7015827 36.4436878,20.371762 C36.3569777,19.8389748 36.2088481,19.3158526 36.086611,18.7891061 C35.2532312,20.19175 33.7767521,19.760446 32.5477578,19.9271686 C32.3038858,19.9603923 31.946809,19.1545667 31.5355385,18.5891598 C33.0505555,18.24907 34.3481953,17.9742195 35.6368027,17.6619168 C36.2317299,17.5175447 36.688764,17.3079334 36.6165057,16.4700923 C36.4617523,14.6735966 36.5039031,12.8595829 36.3419239,11.0636913 C36.2287191,9.80662751 35.9101802,8.56768578 35.6632974,7.20974282 C36.2756871,7.44714121 36.8212377,7.65916878 37.3276484,7.85609467 C37.3710034,8.24994646 37.4264015,8.73803271 37.4769823,9.22672304 C37.6269184,10.6674232 37.8135859,12.1057071 37.9069196,13.5500317 C37.9538875,14.272496 37.7112198,15.0257677 37.8250268,15.7289019 C37.904511,16.2200085 38.3663623,16.6482921 38.6578044,17.1049668 C39.1280859,16.7956845 39.5983674,16.4870061 40.3474457,15.9946914 C40.635877,16.2779989 41.1585459,16.7926641 41.6818168,17.3067253 C41.6703759,17.4577421 41.658935,17.6093629 41.6468919,17.7609838 C40.820738,17.9899252 40.006025,18.3251825 39.1648172,18.4188129 C38.3103621,18.5136514 37.9153497,18.8072281 37.8786184,19.6982271 C37.7991342,21.6457396 37.6498002,23.5908359 37.5197352,25.6748675 C38.7812458,25.5383484 39.9855518,25.3812909 41.194675,25.282828 C43.2383824,25.1173136 45.283294,24.9095145 47.3312164,24.8702501 C49.0214599,24.8376305 50.430498,26.0608664 50.4232721,27.3269912 C49.9325174,27.3801491 49.4411606,27.4743836 48.9492015,27.4743836 C48.4897588,27.4743836 48.030316,27.3753166 47.310141,27.2883309 C47.7912613,26.9379719 48.0513914,26.7482949 48.4060595,26.4897541 C47.8466594,26.3212194 47.3733671,26.0759681 46.8910425,26.0578461 C46.2088032,26.0324753 45.5217466,26.20101 44.8334857,26.2402744 C43.437695,26.3188031 42.0653883,25.9418652 40.628049,26.4861297 C39.7001313,26.8370927 38.5319544,26.551973 37.6190904,26.551973 C37.6190904,28.4710944 37.6100581,30.3110829 37.6233055,32.1504674 C37.6287249,32.9581052 38.1574152,32.8644748 38.687912,32.7182905 C39.9644764,32.3679316 41.2356214,31.9982425 42.5170031,31.6666096 C43.6677175,31.3688045 44.1506442,32.2362449 44.3336987,33.0475071 C44.4192044,33.4262572 43.7568361,33.9747502 43.2859524,34.6603664 C44.019977,34.5449896 44.6618721,34.4441104 45.303165,34.3426271 C45.3332727,34.4465267 45.3633803,34.5504262 45.393488,34.6543258 C44.7455714,35.0379084 44.0946439,35.4166585 43.4497381,35.8056777 C42.2731311,36.5148526 41.0977284,37.2264437 39.9259386,37.9434714 C38.5132877,38.8084956 38.4024915,38.7915817 37.0024858,37.2916829 C37.9195648,37.0186446 38.7583639,36.7872869 39.5827114,36.5112282 C39.8301963,36.428471 40.2468862,36.1910726 40.2306281,36.0744876 C40.0277025,34.6241224 41.1808255,35.2336262 41.8624627,34.9829383 C41.6878384,34.7684944 41.5324829,34.5776092 41.4144609,34.4326331 C41.7161395,33.9838112 41.9943342,33.5712333 42.4543791,32.8868253 C41.3391918,33.2740323 40.5702424,33.5639845 39.7868413,33.8068195 C39.100989,34.0188471 38.3308353,34.0569033 37.7244672,34.3982013 C37.2114328,34.6863413 36.8802487,35.2988654 36.4075586,35.8370892 C36.0769766,35.2106716 35.4459202,34.7292301 36.24016,33.8231294 C36.6086777,33.4014905 36.7586138,32.4204854 36.5303978,31.9076324 C35.8138357,30.2996057 36.3876875,28.6801016 36.122138,26.9270987 C35.6446307,27.1578524 35.1424351,27.4006874 34.9358966,27.4997544 C34.2650982,27.2520869 33.7755478,27.0714708 33.2890081,26.8902506 C34.000753,25.741919 35.2983927,26.5163331 36.4346555,26.0735519 C36.0125462,25.8705853 35.8126314,25.7739345 35.8451477,25.7902444 C36.0294065,25.0236831 36.2208911,24.3543767 36.3377088,23.6723849 C36.3834725,23.4065954 36.2841172,22.8774325 36.2094502,22.8695797 C35.8403304,22.8321275 35.3351241,22.7922591 35.1032951,23.0024745 C34.3813137,23.6578873 33.7562789,24.0348252 33.1023407,24.7651424 C32.6368764,25.2846402 32.1858638,26.1762433 31.5397536,26.1762433 L32.9168776,26.1762433 L32.9168776,26.1762433 Z M14.7703943,36.3124901 C15.8602913,35.7253368 16.6599505,35.2940329 17.6721697,34.7485602 C16.909844,34.3124237 16.2125508,33.9137394 15.3629129,33.4280694 C15.1352991,34.5377408 14.9642876,35.3701453 14.7703943,36.3124901 L14.7703943,36.3124901 Z M21.3338622,31.9994506 C21.3230234,31.9136731 21.3121847,31.8278955 21.3013459,31.7415139 C20.1223303,31.9354195 18.9427126,32.1293251 17.4626205,32.3727641 C17.9822785,33.0354258 18.3218928,33.4673338 18.5741949,33.7893016 C19.6068873,33.1199952 20.4703748,32.5594209 21.3338622,31.9994506 L21.3338622,31.9994506 Z M16.3028738,26.920454 C16.4245087,28.1551673 15.3900098,29.3880683 16.2510886,30.6239897 C16.5828749,29.3898805 17.1916516,28.1563754 16.3028738,26.920454 L16.3028738,26.920454 Z M16.6436924,24.4232404 C16.3167233,25.0780492 16.7460584,25.4030373 17.1428772,25.7612491 C17.2904047,25.8941439 17.3722975,26.1007349 17.484298,26.2741021 C17.6878257,26.1146284 18.0178055,25.9829418 18.0599562,25.7878281 C18.106322,25.5745924 17.9509666,25.2278578 17.7697185,25.0732166 C17.4668355,24.8146759 17.0730275,24.6618469 16.6436924,24.4232404 L16.6436924,24.4232404 Z" id="Fill-1"></path>
                    <path d="M0.905821196,34.3486678 C0.612572679,33.8243375 0.400614818,33.4461914 0.164570836,33.0239485 C2.85438835,31.7656766 5.06368776,29.3898805 8.55737954,29.7052036 C8.06602268,28.8232655 8.88675724,28.1702689 8.07385067,27.378941 C7.64451557,26.9597184 8.72718669,26.4088091 9.12159691,26.3206153 C9.41966266,27.226112 9.67738415,27.3843776 9.86164297,28.5925119 L13.6497876,28.5925119 C13.2216568,28.5925119 12.9241932,29.5632478 12.6809234,29.9734094 C12.132362,30.8994443 11.3604018,31.7729254 11.1351966,32.7774891 C10.7793242,34.3655817 9.5575557,35.3604803 8.9090369,36.7262761 C8.81028381,36.9340752 8.16477578,37.1189197 7.99135571,36.9981063 C7.67462322,36.7776218 7.33440677,36.3161145 7.33922399,35.9603189 C7.35006275,35.1110005 7.55599908,34.2640984 7.70473087,33.271012 C7.62946175,33.2389964 7.31814864,33.1067057 7.00743768,32.9750191 C8.65733694,33.2704079 7.70533303,31.9783083 7.97449542,31.4020282 C6.44683323,30.9193785 5.39547407,32.0218011 4.20622186,32.5557965 C3.0446687,33.0771064 1.95898682,33.7687633 0.905821196,34.3486678 L0.905821196,34.3486678 Z M9.5677923,32.3733682 C9.6587174,32.4518969 9.75024466,32.5304256 9.84116977,32.6089544 C10.4132151,31.8152101 10.9852605,31.02207 11.6313707,30.1256343 C9.79420183,30.01509 9.69966381,31.2105389 9.5677923,32.3733682 L9.5677923,32.3733682 Z" id="Fill-2"></path>
                    <path d="M2.75322664,27.5964051 C3.54806862,25.9237432 4.39168499,24.2722236 5.12029014,22.5705664 C5.63814173,21.3618281 5.942229,20.0612715 6.44863969,18.8464924 C6.90868459,17.7410496 7.09595418,16.6186928 7.08210466,15.4377415 C7.06765298,14.2241706 7.07909389,13.0105997 7.07909389,11.7928003 C7.80408612,11.708835 8.69467043,12.3733088 8.71333717,13.0637576 C8.7693374,15.0813419 8.84039146,17.1381905 8.02808704,19.0150272 C7.11462092,21.1250337 5.98739048,23.142618 4.93000979,25.1891975 C4.60364285,25.8204477 4.23091014,26.4335759 3.8238547,27.0158966 C3.60166024,27.33424 3.26325024,27.5710343 2.97722756,27.8440727 C2.90256059,27.7613155 2.82789362,27.6791623 2.75322664,27.5964051" id="Fill-3"></path>
                    <path d="M10.0591492,22.899783 C10.7618617,23.0659015 11.1364009,23.1045618 11.4567463,23.2585989 C11.5585102,23.3075284 11.6151125,23.7635991 11.5193702,23.8572295 C11.117132,24.2547057 10.6992378,24.7367512 10.1934293,24.9046819 C9.51420068,25.1312071 8.7488642,25.0967753 7.79625813,25.1982585 C6.84425422,24.2746399 6.88279201,24.2081925 8.1388832,23.2459135 C9.34198492,22.3247111 10.4662046,21.2996091 11.7000161,20.2563852 C11.0262069,19.9924078 10.412613,19.7525932 9.65149157,19.454184 C11.3712406,18.3457208 13.7641966,18.770984 14.2934891,20.0461698 C12.919376,20.9722048 11.5524886,21.8934072 10.0591492,22.899783" id="Fill-4"></path>
                    <path d="M36.235945,37.094153 C35.8481584,37.2439616 35.7331472,37.3152416 35.7102654,37.2928911 C35.248414,36.8398407 34.7943907,36.3783334 34.3572276,35.9017244 C34.3439802,35.8878309 34.5270347,35.6927172 34.618562,35.5821729 C35.1207576,36.0515331 35.622351,36.5202892 36.235945,37.094153" id="Fill-5"></path>
                    <path d="M66.4636313,6.36606236 C66.3124909,6.33706714 66.1444902,6.30444751 66.1414795,6.30384345 C66.1414795,5.67923801 66.1721893,5.11322709 66.1348558,4.5520487 C66.0674147,3.53842402 66.1234149,2.4722455 65.8078867,1.53714955 C65.6206171,0.982615901 65.573047,0.647962699 65.9265109,0.267400393 C66.0487479,0.136317821 66.2896091,0.115779538 66.5395026,0.177394387 C66.4552012,0.257735318 66.3702976,0.33807625 66.285394,0.419021248 C66.9459559,0.907107507 67.6444534,3.48949458 67.4764527,4.49768266 C67.9937021,5.19235989 68.4085856,5.79582297 68.8728455,6.35820949 C69.18175,6.73212706 69.5291923,7.09033888 69.9157746,7.37847891 C70.3788302,7.72279719 70.9514778,8.33471721 71.291092,8.34438229 C72.0949663,8.36673277 72.2087732,8.87294105 72.3243866,9.33686462 C72.4026665,9.64916734 72.2617627,10.1438983 72.0353532,10.3788805 C71.6216741,10.8089763 70.9629187,11.0210038 70.6028312,11.4788867 C69.9211939,12.3469312 69.1432123,13.0319434 68.1406275,13.4795571 C68.0418744,13.5236541 68.0201969,13.7429304 67.9533579,13.9030082 C67.6492706,13.8891147 67.1530965,13.6033909 67.4427321,14.4539175 C67.6306039,15.0048267 67.4439364,15.6801738 67.4475494,16.2999467 C67.4487537,16.5947315 67.536668,16.8907244 67.5282379,17.1849051 C67.4788613,18.7862871 67.3945599,20.386461 67.3614415,21.987843 C67.3500006,22.5200262 67.4547752,23.0546256 67.5077647,23.5886209 C67.5119797,23.63453 67.5438938,23.6852717 67.5324529,23.7257442 C67.0940855,25.2987351 67.2879788,26.8777666 67.4222589,28.4688795 C67.4872915,29.238461 67.3054413,30.0279768 67.2392044,30.8090356 C67.2241506,30.9914639 67.2500432,31.1805369 67.2151183,31.3581327 C67.1687525,31.5906985 67.0808382,31.8148074 67.0103863,32.0431448 C66.7773531,31.9253517 66.3985988,31.8570921 66.3383835,31.6801004 C66.1535225,31.1370441 66.0788556,30.5541193 65.9849197,29.9826718 C65.8982097,29.4559252 65.8319728,28.9255542 65.7771769,28.3951833 C65.7235853,27.8756855 65.6958862,27.3531674 65.6501226,26.7430596 C65.9012204,26.8753503 66.0505544,26.9544831 66.2239744,27.0456973 C66.30105,25.7197699 66.0625974,24.4627061 66.3179103,23.1645658 C66.5419112,22.024087 66.3624696,20.800851 66.3221254,19.6156713 C66.316706,19.4531772 66.0854792,19.297932 66.1583398,19.1438948 C66.2438455,18.0976505 66.3293512,17.0520103 66.4196742,15.9441511 C65.8723171,15.4560649 65.8723171,15.4560649 66.2558885,14.9148207 C66.2071142,14.8658913 66.1583398,14.8169618 66.1095654,14.7674283 C65.7085315,15.169133 65.3074976,15.5702336 64.8793668,15.9985172 C64.8299902,15.9568365 64.722807,15.8668305 64.714979,15.8601858 C62.1943665,17.5111013 59.7219262,19.1306054 57.3428196,20.6890986 C57.3151206,20.9923403 57.2964539,21.1947028 57.2783893,21.3964612 C57.1344747,21.3420952 56.9911623,21.2877292 56.820753,21.2224899 C56.7984733,21.3487399 56.6985159,21.5414374 56.7563226,21.6483573 C57.1681953,22.4076697 56.7466882,23.1971854 56.8701295,23.9685792 C57.0080226,24.8299789 57.0664314,25.7046682 57.1886685,26.8469592 C56.3540844,26.5630476 55.6700386,26.2724913 54.9570894,26.1015403 C54.0478384,25.8840761 53.1325658,25.6315761 52.2010351,26.1625511 C51.881894,26.3443753 51.4110103,26.2404757 51.0190087,26.3177963 C50.5475229,26.4108227 50.0531553,26.4917677 49.6316481,26.7043993 C49.3432169,26.8499795 49.162571,27.2106076 48.8181394,27.6092919 C48.6091923,27.304238 48.2195993,26.9883109 48.2208036,26.674196 C48.2226101,26.2767198 48.1563733,25.757222 48.7513004,25.4775389 C49.3323781,25.2045006 49.8044661,24.704333 50.3415866,24.3286032 C50.4957377,24.2204752 50.7088999,24.1981247 50.7781475,24.1751701 C50.9449439,23.8846138 51.0256324,23.6121796 51.2068804,23.4587465 C51.5019354,23.2092668 51.8879155,23.0709354 52.1883898,22.8268923 C52.6237465,22.4723048 52.9302424,22.0579148 52.1347982,21.5106299 C53.1391895,21.5227113 52.6050797,20.9633451 52.6472304,20.6286919 C52.7863278,19.5383507 52.9175971,18.4461973 53.0163502,17.3522317 C53.0464579,17.0193907 52.9302424,16.6750724 52.9374682,16.3373988 C52.9428876,16.1030208 53.0446514,15.8704549 53.1114904,15.6046654 C52.8989304,15.5182838 52.6592735,15.4204249 52.4689931,15.3431043 C52.6520477,13.9144855 52.8326936,12.5039887 53.0422428,10.8669667 C53.6769121,11.2004118 54.2700328,11.5115064 54.8071533,11.7930017 C54.9733475,11.3049154 55.0793265,10.9914045 55.1859075,10.6784978 C55.4990271,10.8216617 55.8669426,10.9026067 56.1150296,11.1206749 C56.9285384,11.8346823 56.9628611,12.7999816 56.8930113,13.7985046 C56.8376133,14.5982895 56.8297853,15.4016988 56.8267745,16.2039 C56.8249681,16.6497016 56.9002372,17.0961072 56.8972264,17.5413047 C56.8942156,18.0173096 56.8400219,18.4921064 56.797269,19.1348338 C57.2055288,18.9149534 57.5957239,18.8074294 57.8395959,18.5561375 C59.0842462,17.2718907 60.6799516,16.1453055 62.2401301,15.3769321 C62.7965195,15.1026856 63.239102,15.5043902 63.8063301,13.6921888 L62.9247781,13.6921888 C62.9199609,13.6921888 62.9151436,13.9676434 62.9103264,13.883074 C63.2330804,13.883074 63.5558344,14.098726 63.8785885,14.1065789 C64.7619469,14.1277212 65.4971758,13.7876314 65.8193276,12.9799936 C66.3040608,11.7627983 66.3269426,10.5359379 66.2884048,9.25169115 C66.2673295,8.54010004 66.1776087,7.8569001 66.178813,7.14651712 C66.1794151,6.88797638 66.355846,6.65722273 66.4636313,6.36606236 L66.4636313,6.36606236 Z M55.6122319,15.4161964 C55.3791987,15.7152097 55.0161004,15.9834155 54.9378205,16.3186728 C54.7318842,17.1969864 54.6542064,18.1048993 54.5175177,19.0001269 C54.447668,19.4586138 54.3597536,19.9140805 54.2712371,20.4172684 C54.6885292,20.7416525 55.1648322,20.674601 55.6495654,20.1502707 C56.0186852,19.7503783 55.8091359,18.155641 55.3268114,17.6923215 C55.9638892,17.1196658 56.0542122,16.2600783 55.5688769,15.3932419 C55.723028,15.2875301 56.0156744,15.1673208 56.0066421,15.0773148 C55.9771366,14.7783015 55.9127062,14.4092165 55.7152,14.2286004 C55.5989845,14.1222846 55.2045743,14.3228349 54.7878844,14.4194856 C55.1557999,14.8640791 55.3840159,15.1401378 55.6122319,15.4161964 L55.6122319,15.4161964 Z M65.6392839,5.52822122 L65.6392839,11.8824036 C66.8435899,11.7567576 67.2813551,11.7398438 67.5125819,11.5688927 C68.4224351,10.896566 68.858996,10.1759139 69.7754729,9.44982518 C68.5735755,8.17524348 68.0478959,6.93690582 65.6392839,5.52822122 L65.6392839,5.52822122 Z M55.2015635,22.428812 C54.7457337,22.7133276 54.2820759,22.851055 54.0472362,23.5378793 C53.9183755,23.9136091 53.7208693,24.3648472 53.9063324,24.569626 C54.1146773,24.7997756 54.61326,24.8052122 54.99081,24.830583 C55.3406609,24.8535376 55.6983398,24.7731966 56.1192447,24.731516 C55.9566634,23.9637466 56.2456969,22.9543504 55.2015635,22.428812 L55.2015635,22.428812 Z" id="Fill-6"></path>
                    <path d="M64.8817754,21.0461023 C64.675839,21.1016765 64.4693006,21.1572507 64.2121812,21.2273224 C64.6156237,21.6846013 65.1611744,22.0669758 65.3135191,22.5695597 C65.3972184,22.8438061 64.8143342,23.3216233 64.3940314,23.6363422 C64.4566553,23.4255228 64.5192793,23.2147034 64.5825053,23.0038839 C64.5271072,23.0588541 64.4723113,23.1132201 64.4169132,23.1681902 C63.7653837,22.6064078 63.113252,22.0446253 62.3768188,21.4109589 C62.5050774,21.1385246 62.6586264,20.8117242 62.8501111,20.4033748 C63.487189,21.0189193 64.1110195,21.276856 64.9010443,20.7978307 C64.8944206,20.8805879 64.8883991,20.9633451 64.8817754,21.0461023" id="Fill-7"></path>
                    <path d="M87.0200437,15.3971056 C86.7486428,15.3764695 86.4765784,15.3564991 86.3405461,15.3465138 C86.2018596,16.9567968 86.0645002,18.5544319 85.9251501,20.1693747 C86.2728618,19.9716673 86.6856035,19.7207055 87.1129438,19.498368 C87.4513655,19.3226281 87.8110214,19.1874948 88.1560788,19.0230715 C88.6365049,18.7954085 89.1069774,18.5451124 89.5913848,18.3261032 C90.3398939,17.9872715 91.1414888,17.7409694 91.8342579,17.3142677 C92.3166746,17.0167082 92.6889385,17.0553177 92.984228,17.4008063 C93.2450117,17.7050226 93.5144219,18.16168 93.473944,18.5164881 C93.4387747,18.8286926 92.9988265,19.1129385 92.7048642,19.3732199 C91.9430837,20.0468893 91.1394981,20.6752925 90.4035968,21.3755892 C90.1195881,21.6458558 89.8289436,22.0472616 89.795765,22.4127206 C89.7373707,23.0484462 89.1965596,23.2641269 88.9025972,23.6721896 C88.5489134,24.164128 88.637832,24.3218945 89.0897245,24.6494097 C89.8966279,25.2338778 90.621912,25.9315118 91.3856833,26.5772227 C91.5529034,26.7190128 91.7194599,26.9014094 91.9178679,26.9619864 C93.4593454,27.4326231 94.4401047,28.794607 96.0598837,29.3930545 C96.1481388,29.3378029 96.3936604,29.1820335 96.6743513,29.0049623 C96.5734884,29.2253028 96.477934,29.4329953 96.3239853,29.7691644 C97.2629396,29.7691644 98.0990402,29.8011171 98.9311593,29.7578478 C99.4706433,29.7292235 100.009464,29.613395 100.538994,29.4935723 C101.087768,29.3697556 101.841586,29.6992678 102.128249,30.2571088 C100.345231,30.9853641 98.4792669,31.2995656 96.6126391,30.9281155 C95.6205991,30.7310738 94.7095149,30.0800375 93.7884771,29.584105 C93.0937173,29.2099921 92.4327997,28.7686454 91.7745364,28.3312928 C91.5887363,28.2081418 91.4812376,27.9711593 91.3060546,27.8253751 C90.9371087,27.5178303 90.5356477,27.2502264 90.169356,26.940019 C89.7824936,26.6138351 89.3962947,26.2796631 89.0552188,25.9075473 C88.572802,25.3816591 87.321969,25.5034788 86.9842109,26.1039233 C86.6630421,26.6744121 86.2237575,27.1809956 85.9304587,27.7634667 C85.5973456,28.4251539 85.3690769,29.1394299 85.0399452,29.9715315 C84.1023181,30.1432773 82.9297866,29.8969752 82.2688689,29.218646 C82.158716,29.1061458 82.2595789,28.8105833 82.200521,28.6182015 C82.0943495,28.2713815 81.9410644,27.9385409 81.8076865,27.5997091 L81.7864522,27.612357 C82.0525445,27.8613218 82.3259361,28.1036298 82.5827385,28.3612485 C82.7983993,28.5775949 82.9954802,28.8125804 83.2635632,29.1088086 C83.524347,28.9370628 83.7711957,28.7753022 84.0180445,28.6135417 C83.9390794,28.5968997 83.8601144,28.5795919 83.7804857,28.5629499 C83.7804857,27.5031853 83.7526157,26.442755 83.7937572,25.3849875 C83.81101,24.9549574 83.9364251,24.5149421 84.0870559,24.1075451 C84.4115426,23.2295115 84.1507589,22.7222624 83.2907697,22.3541406 C82.6583857,22.0832084 82.1023124,21.6365362 81.4904991,21.3103524 C81.2018453,21.1572457 80.8607694,21.1019942 80.4327655,20.9675265 C80.5415913,21.8988146 80.6271921,22.6297327 80.7127928,23.3606507 C80.6271921,23.3839496 80.5415913,23.4072484 80.4559905,23.4305473 C80.1308403,22.3148654 79.8063536,21.1991836 79.4533334,19.984981 C79.8375415,19.408501 80.2609004,19.8917856 80.8315722,20.0242562 C81.5999885,20.2019931 81.2336968,20.3730732 81.890633,20.8064317 C82.3206276,21.0893462 82.1295188,21.3802489 82.1295188,21.6997759 L82.1295188,19.8731465 C82.1295188,19.1841664 83.8913022,18.5996982 83.9138637,18.0005851 C83.972258,16.4542075 84.3962805,14.9018387 84.3710647,13.3521327 C84.3624383,12.8182563 84.7121407,12.2830486 84.7254121,11.7478409 C84.7413378,11.1260945 84.8654258,10.5036825 84.8654258,9.72084137 C84.4042433,9.98311979 84.0392788,10.2294219 83.8256086,10.3505759 C83.6968757,10.7666267 83.7214278,11.1240975 83.5860592,11.1813461 C82.7127985,11.5488022 82.1116024,12.1698828 81.7751715,13.1138188 C81.7313757,13.2349728 81.6351578,13.34947 81.530977,13.4320145 C80.6212199,14.153613 80.2914247,15.1627858 79.9908266,16.2398581 C79.8421865,16.7710718 79.3491526,17.205096 78.9934781,17.7070196 C79.182596,17.8521382 79.3332269,17.967301 79.4029019,18.0205555 C78.1872382,18.4139732 79.0094038,19.45643 78.8023694,20.1400847 C78.5681285,20.914272 78.448022,21.7337257 78.3677298,22.5425284 C78.3126533,23.1043634 78.4340869,23.6815091 78.4314327,24.251998 C78.4274512,25.3310673 78.3883005,26.4101367 78.3683933,27.489206 C78.328579,29.6506731 78.1952011,31.8161343 78.2973911,33.9709446 C78.3438412,34.9528245 78.3922819,35.9140682 78.2243982,36.8746463 C78.153396,37.2813776 77.9423802,37.662813 77.7957308,38.0562306 C77.7174293,38.0335974 77.6391278,38.0102986 77.5601628,37.9869997 C77.3445019,37.5396619 77.1281775,37.0916584 76.9105259,36.6416579 C76.7280436,36.7068947 76.5734313,36.7614805 76.5448978,36.7721314 C76.3312276,36.3467611 76.104286,35.9766423 75.9543188,35.5778992 C75.6099249,34.6659159 75.2403154,33.7559295 75.0040838,32.8139905 C74.8547801,32.2208685 74.9596245,31.5678352 74.8919402,30.9480859 C74.8461537,30.5346979 74.6517271,30.1372861 74.6072678,29.7238981 C74.5701078,29.3830692 74.5734256,28.9943114 74.7021586,28.6874323 C75.1374618,27.6549606 75.5382592,26.6384653 75.2469511,25.4801799 C75.2144361,25.3517034 75.3975819,25.1686411 75.4792013,25.0135373 C75.2880926,24.7818803 75.0956567,24.5495575 74.9038844,24.316569 C74.9828495,24.3378708 75.0618146,24.358507 75.140116,24.3798088 C75.3079997,24.0522936 75.4798649,23.7261098 75.6431035,23.3959318 C75.8554465,22.9672331 76.0405831,22.5238894 76.2754876,22.1085042 C76.4811948,21.7443766 76.8083358,21.4221869 76.3790048,20.9974822 C76.3418448,20.9608697 76.3975848,20.7678222 76.4626148,20.6972599 C77.2535925,19.8458536 77.9861759,17.6630847 77.9423802,16.5926692 C77.9304359,16.2957753 77.6696521,16.0095324 77.6026314,15.8750648 C77.7293736,15.2393392 77.9092016,14.7014687 77.9019023,14.1669266 C77.899248,13.9925181 77.4228034,13.7362308 77.1341496,13.6869704 C76.9510038,13.6563491 76.64377,13.8926659 76.5157006,14.0897076 C75.9914788,14.9005074 74.9669238,14.715448 74.3119783,15.2513214 C74.1998347,15.3431854 73.9841738,15.3145611 73.8806566,15.4104192 C73.4864949,15.7752126 73.1746161,15.7885262 72.8434937,15.3165582 C72.67561,15.0775786 72.4048727,14.9104926 72.1202003,14.6581994 C73.4752142,13.9758761 74.7645343,13.3261712 76.0545181,12.6771319 C76.5575056,12.5985815 77.7180929,12.0427377 77.941053,11.4709174 C78.0399252,11.2186242 77.9636145,10.8917747 77.9463616,10.6002063 C77.889958,9.66492414 77.8043572,8.73030763 77.7738329,7.79369407 C77.7638793,7.49214045 77.9516702,7.18326434 77.9377352,6.88304208 C77.9251273,6.62342638 77.7545893,6.37179886 77.6669978,6.14879563 C77.5714435,5.82860294 77.5734342,5.47912027 77.4015691,5.32534789 C76.9622845,4.93326162 77.1766182,4.42135272 77.045231,3.9813374 C77.2456297,3.96935513 77.483852,3.88215089 77.6371371,3.96070128 C77.9403895,4.11580501 78.1958646,4.36343845 78.5163699,4.60641211 C78.6875714,5.16491871 78.9549909,5.82061476 79.0750974,6.50160671 C79.1653432,7.00952152 79.1016403,7.55538017 79.0399281,8.07660861 C78.9662716,8.69302947 79.5263263,9.21625496 80.1553925,9.14436138 C80.6948764,9.0831187 81.2476318,9.13171344 81.8295844,9.26950946 C81.6995243,9.33008646 81.5694642,9.39066345 81.4394041,9.45124045 C81.4480305,9.49184701 81.4573205,9.53178788 81.465947,9.57239444 C81.6723178,9.5597465 81.885988,9.57638853 82.0837324,9.52845948 C82.5595134,9.4139623 83.2940875,9.73082658 83.3179761,8.80619529 C83.3199668,8.72631354 83.5236834,8.63378384 83.6477714,8.57720093 C84.4599834,8.20375374 84.7672171,7.16861935 85.7267421,6.98089723 C85.7897814,6.96824929 85.8176515,6.7971692 85.8700736,6.7046395 C86.4420726,5.69946077 87.0160623,4.73688564 88.236371,4.33148575 C88.6895906,4.1803761 89.020713,3.66047902 89.4526983,3.26839275 C89.8720758,3.71839329 90.1939081,4.06321619 90.5383019,4.43200362 C90.7141485,4.28488806 90.8727422,4.1517518 91.0890666,3.9706865 C91.1109645,4.12978432 91.1560874,4.2442815 91.1262266,4.27024307 C90.3438754,4.94857229 90.3551561,5.90781901 90.1454674,6.81713964 C89.7838207,8.39081017 89.265571,9.92720256 88.8554836,11.4908879 C88.6948992,12.1019833 88.77121,12.7976202 88.5230341,13.3587895 C88.2078374,14.0717342 87.6716713,14.6868237 87.2310596,15.3445168 C87.1938996,14.4458471 87.0193802,13.591778 86.4467176,12.7909634 C86.1149317,14.0684058 86.1414745,14.3067197 86.5880584,14.809309 C86.7486428,14.9903744 86.8773758,15.200064 87.0200437,15.3971056 L87.0200437,15.3971056 Z M75.1786032,30.2091797 C76.2788054,30.6831448 75.0963203,32.2501585 76.6570414,32.5843305 C76.1938682,32.668872 75.9881609,32.7068159 75.5886906,32.7793751 C76.3610883,33.4630298 75.7930708,34.6965372 76.9715745,35.1245703 C77.0744281,33.9276753 77.2741633,32.7833692 77.2449661,31.6457199 C77.2091332,30.2471235 77.3372026,28.8518556 77.2774811,27.4652415 C77.248284,26.8022229 78.0080738,25.8889082 76.8308972,25.4848397 C77.0332867,25.3157566 77.2847804,25.2092476 77.3033604,25.0721173 C77.4174948,24.2260364 77.4785434,23.3732987 77.5575085,22.522558 C77.4825248,22.491271 77.4075412,22.459984 77.3325576,22.4293626 C77.0691196,23.0271444 76.8056815,23.6249262 76.5302992,24.2506666 C76.5608235,24.2679743 76.6895564,24.3405336 76.8786744,24.4477083 C76.6178907,24.5608741 76.431427,24.6414215 76.3245919,24.6873535 C76.3245919,25.0681232 76.3663969,25.3670141 76.316629,25.6499286 C76.1719703,26.4713793 75.6577021,27.4086586 75.8999059,28.0770026 C76.2788054,29.1207908 75.6271778,29.5248594 75.1786032,30.2091797 L75.1786032,30.2091797 Z M87.0950274,12.9913335 C87.160721,13.0026501 87.2264146,13.0139666 87.2921082,13.0252832 C87.452029,12.6904455 87.7134764,12.3675901 87.7552814,12.0181075 C87.9125479,10.7093781 87.9954944,9.39132913 88.1156009,8.07793997 C88.1275452,7.95079485 88.199211,7.82697813 88.2522968,7.70515846 C88.4195169,7.32572013 88.6073077,6.9536043 88.7406857,6.56284939 C88.7586021,6.51092625 88.4427419,6.25330759 88.3889926,6.28326325 C88.1029931,6.44435812 87.8296015,6.64472818 87.5913791,6.87239118 C86.9404151,7.49347181 86.3086947,8.13518856 85.6696749,8.76891714 C86.4069033,9.2289029 86.0757809,9.56507195 85.9032522,9.8652942 C86.1938967,10.3365965 86.5502348,10.7599698 86.73139,11.2485799 C86.9351065,11.7984326 86.980893,12.407531 87.0950274,12.9913335 L87.0950274,12.9913335 Z M87.2848089,23.3153844 C87.7353742,22.6663452 88.2151367,21.9926757 88.6716742,21.3036956 C88.7718736,21.1525859 88.82695,20.9468904 88.82695,20.7658251 C88.8276136,20.6926002 88.5986813,20.534168 88.5203798,20.5594639 C87.8714065,20.7671565 87.1720017,20.9136064 86.616592,21.2770683 C86.2987411,21.4847609 86.2211032,22.0619066 86.0479109,22.4460047 C86.5163927,22.7755169 86.9430694,23.0750735 87.2848089,23.3153844 L87.2848089,23.3153844 Z M79.9198244,12.4508003 C79.9603023,12.5333448 80.0001166,12.6158892 80.0405945,12.6984337 C80.5396006,12.3809037 81.0399338,12.0633738 81.586717,11.7158882 C80.7127928,11.344438 80.3896333,12.0560513 79.9198244,12.4508003 L79.9198244,12.4508003 Z M86.0180502,23.9597639 C85.8355679,24.6234481 85.6856007,25.164647 85.536297,25.7065115 C85.5727934,25.7304761 85.6086263,25.7551063 85.6444592,25.7797365 C85.9550108,25.3643514 86.2655625,24.9489663 86.6046477,24.4956373 C86.4427362,24.3478561 86.2702075,24.1894239 86.0180502,23.9597639 L86.0180502,23.9597639 Z M78.9390652,13.2769107 C79.0180302,13.8154469 79.0750974,14.201542 79.131501,14.5869715 C79.2098025,14.5836431 79.2874404,14.579649 79.3657419,14.5756549 C79.500447,14.2368231 79.6344885,13.8979914 79.7877736,13.5132276 C79.5395977,13.4439967 79.3318997,13.3867482 78.9390652,13.2769107 L78.9390652,13.2769107 Z" id="Fill-8"></path>
                    <path d="M85.6155028,33.1731531 C85.1000599,32.4893491 85.0681458,32.2114782 85.462556,31.6545283 C85.9478913,32.1341576 85.8160198,32.6536553 85.5980404,33.1834222 C85.596234,33.1846304 85.6155028,33.1731531 85.6155028,33.1731531" id="Fill-9"></path>
                </g>
            </g>
        </g>
    </g>
</svg>