<?xml version="1.0" encoding="UTF-8" standalone="no"?>
<svg width="29px" height="29px" viewBox="0 0 29 29" version="1.1" xmlns="http://www.w3.org/2000/svg" xmlns:xlink="http://www.w3.org/1999/xlink" xmlns:sketch="http://www.bohemiancoding.com/sketch/ns">
    <!-- Generator: Sketch 3.3.3 (12072) - http://www.bohemiancoding.com/sketch -->
    <title>Oval 8 Copy + 聚焦icon copy 2</title>
    <desc>Created with Sketch.</desc>
    <defs></defs>
    <g id="YXTimes" stroke="none" stroke-width="1" fill="none" fill-rule="evenodd" sketch:type="MSPage">
        <g id="首页" sketch:type="MSArtboardGroup" transform="translate(-735.000000, -465.000000)">
            <g id="横-大-左图-card" sketch:type="MSLayerGroup" transform="translate(201.000000, 453.000000)">
                <g id="content" transform="translate(408.987654, 11.178862)" sketch:type="MSShapeGroup">
                    <g id="Oval-8-Copy-+-聚焦icon-copy-2" transform="translate(125.530864, 2.032520)">
                        <ellipse id="Oval-8-Copy" stroke="#BC8EFF" fill="#FFFFFF" cx="13.7751323" cy="13.6106272" rx="13.5582011" ry="13.6106272"></ellipse>
                        <g id="聚焦icon-copy-2" transform="translate(7.447972, 7.259001)" fill="#BC8EFF">
                            <g id="Group">
                                <path d="M10.7088567,9.17636733 L7.03030059,8.17165558 C7.00774289,8.16472653 6.98628556,8.16010717 6.96372786,8.15895233 L6.39648417,8.00247136 C6.22152442,7.95396803 6.03556092,8.00824557 5.90571659,8.14220713 C5.77972356,8.27559128 5.73020666,8.47249169 5.77752281,8.65668884 L6.64131777,12.0132345 C6.66497585,12.1067766 6.712292,12.1887703 6.77446323,12.252864 C6.88615137,12.3683481 7.04625604,12.4283999 7.21076221,12.4006837 C8.43713097,12.1962768 9.58977456,11.5761271 10.457971,10.6562962 C10.6461353,10.4559313 10.8243961,10.2393986 10.9867016,10.0118949 C11.0879361,9.87042683 11.1154455,9.68507483 11.0598765,9.51762288 C11.0043076,9.35017092 10.8733629,9.22082871 10.7088567,9.17636733 L10.7088567,9.17636733 Z" id="Shape"></path>
                                <path d="M7.4335883,4.6678677 C7.43909018,4.6875 7.44514224,4.70655488 7.4517445,4.7267646 L7.61404992,5.35037879 C7.637708,5.44161123 7.68392378,5.52360495 7.74609501,5.58712121 C7.80936661,5.65179231 7.8869431,5.70029564 7.97497316,5.7245473 C8.1499329,5.77247321 8.33699678,5.71935052 8.46409018,5.58423411 L10.7968867,3.11345159 C10.9795491,2.91943829 10.9933038,2.61282797 10.8304482,2.4026469 C9.87917338,1.17678307 8.48664788,0.383407243 6.98683575,0.191126201 C6.8168277,0.169761641 6.65177134,0.237897265 6.5400832,0.371858832 C6.42949544,0.505242979 6.3904321,0.690017554 6.4355475,0.861511456 L7.4335883,4.6678677 L7.4335883,4.6678677 Z" id="Shape"></path>
                                <path d="M11.3212158,3.58347191 C11.1545089,3.54998152 10.9839506,3.60599132 10.8645598,3.73186899 L7.74499463,7.03760163 C7.61735105,7.17329545 7.56783414,7.37077328 7.61735105,7.55497044 C7.63990875,7.6467803 7.68722491,7.72704176 7.74939614,7.79171286 C7.81156736,7.85580654 7.89134461,7.90373245 7.97827429,7.92740669 L11.1836688,8.8045085 C11.436205,8.87322154 11.6964439,8.73117609 11.7877751,8.47595621 C12.3187064,6.98852088 12.2840446,5.36308204 11.6931428,3.89989837 C11.62657,3.73533352 11.4879227,3.61696231 11.3212158,3.58347191 L11.3212158,3.58347191 Z" id="Shape"></path>
                                <path d="M4.94178744,7.27665373 C4.89447128,7.09361142 4.75802469,6.95041112 4.58251476,6.90075296 C4.40645464,6.85224963 4.21939077,6.90537232 4.09064681,7.03991131 L1.76170156,9.50896157 C1.57903918,9.70182003 1.56528449,10.0101626 1.72869028,10.2203437 C1.85743425,10.3883731 1.99718196,10.5465863 2.14023081,10.6949834 C3.04804079,11.6396434 4.25680354,12.2545963 5.54314278,12.4260902 C5.71205046,12.449187 5.87875738,12.3822062 5.98934514,12.2470898 C6.0999329,12.1142831 6.14174718,11.9300859 6.09663178,11.7574372 L4.94178744,7.27665373 L4.94178744,7.27665373 Z" id="Shape"></path>
                                <path d="M1.65166398,3.26242609 C1.71218465,3.32594235 1.78921095,3.37386826 1.87614063,3.39811992 L6.14229737,4.60492886 C6.3178073,4.65400961 6.50542136,4.60088692 6.63416532,4.46634793 C6.76180891,4.33123152 6.81242619,4.1337537 6.76400966,3.94897912 L5.88976114,0.610910939 C5.81988728,0.34818459 5.5739533,0.181887472 5.31701557,0.226348854 C4.10275094,0.435952513 2.96056092,1.05494734 2.1000671,1.96669438 C1.92345679,2.15320122 1.75730005,2.35414357 1.6054482,2.56086013 C1.50256307,2.70232816 1.47450349,2.88710273 1.52732152,3.05513211 C1.55207998,3.13481615 1.59719538,3.20583888 1.65166398,3.26242609 L1.65166398,3.26242609 Z" id="Shape"></path>
                                <path d="M4.83230005,5.56344697 C4.95829308,5.4294854 5.00780998,5.23316242 4.96049383,5.04896526 C4.91317767,4.86707779 4.77783145,4.72387749 4.6034219,4.67479675 L1.39362587,3.76709165 C1.14329039,3.69606892 0.881400966,3.83638211 0.786768653,4.09102458 C0.234380032,5.59462768 0.262439614,7.24027624 0.864345142,8.72366962 C0.891854536,8.7877633 0.928717123,8.84550536 0.974932904,8.89343126 C1.04590714,8.96676367 1.13613795,9.01873152 1.23682233,9.03836382 C1.40352925,9.07243163 1.57353731,9.01642184 1.69347826,8.88996674 L4.83230005,5.56344697 L4.83230005,5.56344697 Z" id="Shape"></path>
                            </g>
                        </g>
                    </g>
                </g>
            </g>
        </g>
    </g>
</svg>